<svg width="692" height="309" viewBox="0 0 692 309" fill="none" xmlns="http://www.w3.org/2000/svg">
<path d="M9.5 2.5C371 100.553 653.241 -42.6418 499.034 100.553C344.828 243.747 691.5 293.5 691.5 293.5" stroke="#9333EA" stroke-width="5"/>
<path d="M1 29C353.836 117.247 631.507 -17.3179 478.783 117.247C326.059 251.813 691 306 691 306" stroke="#9333EA" stroke-width="5"/>
<path d="M474 122L464 149L459 172.5L461 185L477.5 212L495 226.5L536.5 250.5L609.5 276.5L691 293.5L689 306.5L640.5 296.5L590 284L541 267.5L489 244L450.5 212L442 185L444.5 164L455 142L474 122Z" fill="#9333EA"/>
<path d="M12 3L106 24.5L155.5 31L225.5 38L281.5 41L339 39.5L418.5 37L502 33.3606H519.546L537 37L542 46.5L540.5 55.5L522.5 76.5L519.546 60L504 53.962H457.622L374.5 60L299 62H229L151.162 55.5L83.5 46.4369L3 29.0001L12 3Z" fill="#9333EA"/>
</svg>
