<svg width="1440" height="1024" viewBox="0 0 1440 1024" fill="none" xmlns="http://www.w3.org/2000/svg">
<g clip-path="url(#clip0_291_32)">
<rect width="1440" height="1024" fill="white"/>
<path d="M478.664 -53C1059.79 137.3 1513.5 -140.611 1265.61 137.3C1017.71 415.211 1575 511.77 1575 511.77" stroke="#9333EA" stroke-width="5"/>
<path d="M465 -1.56916C1032.19 169.701 1478.56 -91.4624 1233.05 169.701C987.543 430.863 1574.2 536.03 1574.2 536.03" stroke="#9333EA" stroke-width="5"/>
<path d="M1240.48 164.924L1224.77 194.745L1209.29 231.325L1201.25 276.934L1204.46 301.194L1230.99 353.595L1259.12 381.737L1325.83 428.316L1443.18 478.776L1574.2 511.77L1570.98 537L1493.02 517.592L1411.84 493.332L1333.07 461.309L1249.47 415.7L1187.58 353.595L1173.92 301.194L1177.94 260.437L1194.82 217.74L1217.16 186.946L1240.48 164.924Z" fill="#9333EA"/>
<path d="M482.683 -52.0298L633.791 -10.3028L713.363 2.31235L825.89 15.8979L915.912 21.7203L1008.35 18.8091L1136.14 13.9571L1246.56 5.26619L1298.58 6.89377L1326.64 13.9571L1334.67 32.3946L1332.26 49.8617L1313.47 79.1309L1291.16 106.199L1303.33 75.0018L1298.58 58.5953L1273.59 46.8769H1199.03L1065.41 58.5953L944.044 62.4769H831.517L706.39 49.8617L597.621 32.2722L468.215 -1.56898L482.683 -52.0298Z" fill="#9333EA"/>
</g>
<defs>
<clipPath id="clip0_291_32">
<rect width="1440" height="1024" fill="white"/>
</clipPath>
</defs>
</svg>
