<svg width="957" height="399" viewBox="0 0 957 399" fill="none" xmlns="http://www.w3.org/2000/svg">
<path d="M21 3.00001C371.382 203.089 824.241 21.8582 670.034 165.053C515.828 308.247 956 384 956 384" stroke="#9333EA" stroke-width="5"/>
<path d="M2 27C359.502 220.787 821.563 45.2643 664.223 183.949C506.884 322.633 956 396 956 396" stroke="#9333EA" stroke-width="5"/>
<path d="M635 224L641 245L652 265L669.5 281L716.5 311L768.5 333.5L864.5 364.5L955 383.5V396.5L906 387.5L818.5 365.5L728 333.5L679.5 307.5L659 293L642 275.5L634 261.5L630.5 245L635 224Z" fill="#9333EA"/>
<path d="M693.5 142.5V150L672.5 176.5L645.5 199.5L647.479 192.25L693.5 142.5Z" fill="#9333EA"/>
<path d="M22.5 1.5L98 40.5L190 72.5L299 94L409.5 104L524.5 105.5L649 103.5L684.5 107L700 114L702.5 124.5L695.5 136L682.5 128L595 124.5L471 126.5L364 122.5L253 110L140 84L86.5 65L1 29L22.5 1.5Z" fill="#9333EA"/>
</svg>
