<svg width="741" height="399" viewBox="0 0 741 399" fill="none" xmlns="http://www.w3.org/2000/svg">
<path d="M21 -74C371.382 136.592 824.241 -54.1518 670.034 96.5596C515.828 247.271 956 327 956 327" stroke="#9333EA" stroke-width="5"/>
<path d="M2 -26C359.502 195.621 821.563 -5.11243 664.223 153.492C506.884 312.096 956 396 956 396" stroke="#9333EA" stroke-width="5"/>
<path d="M194 -2L279 18.5L378 30L482 35L655.5 32L693 39L702.5 51.5L693 72L676 89L640 85.5L596 86.5H413L332 81.5L250 68L140.5 39L92.5 21L46.5 0L194 -2Z" fill="#9333EA"/>
<path d="M677 89L695 98V113L679 137.5L640.699 181L638 158.5L642.5 134L659 107L677 89Z" fill="#9333EA"/>
<path d="M642 183.5L663 212.5L691 234.5L716 250.5L741 262V328L697.5 306L671.5 286L653.5 271L639 250.5L631 227.5L633.5 202L637 190.5L642 183.5Z" fill="#9333EA"/>
</svg>
