<svg width="81" height="81" viewBox="0 0 81 81" fill="none" xmlns="http://www.w3.org/2000/svg">
<g clip-path="url(#clip0_1_27)">
<path d="M81 52.3125C81 53.244 80.244 54 79.3125 54H75.3739C72.8359 54 70.3181 54.837 68.2864 56.3625L47.7259 71.7795C45.6064 73.4265 43.0583 74.2534 40.5034 74.2534C37.9485 74.2534 35.3801 73.4231 33.2471 71.7592L12.7102 56.3625C10.6785 54.837 8.16075 54 5.62275 54H1.6875C0.756 54 0 53.244 0 52.3125C0 51.381 0.756 50.625 1.6875 50.625H5.62613C8.89313 50.625 12.1264 51.7016 14.7353 53.6591L35.2957 69.0761C38.367 71.4724 42.6296 71.4622 45.6806 69.0964L66.2648 53.6591C66.9904 53.1158 67.7632 52.6433 68.5732 52.2383L44.0066 33.8175L39.582 38.0531C38.016 39.6191 35.8762 40.5 33.6454 40.5C30.7665 40.5 28.2319 38.9914 26.7638 36.9529C24.3911 33.6589 24.8906 28.8799 27.9349 25.839L38.1577 16.2135L34.83 13.1827C31.2322 9.909 25.6129 9.32513 21.546 11.3636L13.7329 15.2719C11.6336 16.3215 9.28463 16.875 6.939 16.875H1.6875C0.756 16.875 0 16.119 0 15.1875C0 14.256 0.756 13.5 1.6875 13.5H6.939C8.7615 13.5 10.5907 13.068 12.2209 12.2546L20.034 8.34638C22.1164 7.30013 24.4552 6.75 26.7941 6.75C30.6922 6.75 34.3103 8.15063 37.1014 10.6886L40.6181 13.8949L43.8412 10.8607C48.3604 6.60825 55.4411 5.57888 60.9626 8.34638L68.7757 12.2546C70.4059 13.068 72.2351 13.5 74.0576 13.5H79.3091C80.2406 13.5 80.9966 14.256 80.9966 15.1875C80.9966 16.119 80.2406 16.875 79.3091 16.875H74.0576C71.7154 16.875 69.363 16.3215 67.2637 15.2719L59.4506 11.3636C55.1576 9.21038 49.6598 10.0136 46.1531 13.3178L30.2805 28.2622C28.431 30.1117 28.0834 33.0142 29.5009 34.9819C30.402 36.2306 31.725 36.9866 33.2302 37.1081C34.7017 37.2161 36.1665 36.6964 37.2195 35.64L51.2764 22.1839C51.948 21.5393 53.0179 21.5629 53.6625 22.2379C54.3037 22.9095 54.2835 23.9794 53.6085 24.624L46.4771 31.4516L72.4342 50.9186C73.3995 50.7262 74.385 50.625 75.3739 50.625H79.3125C80.244 50.625 81 51.381 81 52.3125Z" fill="#9E9E9E"/>
</g>
<defs>
<clipPath id="clip0_1_27">
<rect width="81" height="81" fill="white"/>
</clipPath>
</defs>
</svg>
