<?xml version="1.0" encoding="UTF-8"?>
<svg version="1.1" xmlns="http://www.w3.org/2000/svg" width="512" height="512">
<path d="M0 0 C0.6567084 -0.00235223 1.3134168 -0.00470446 1.99002546 -0.00712797 C4.2000033 -0.01380763 6.4099222 -0.01336006 8.61990929 -0.01294994 C10.21665803 -0.01624921 11.81340594 -0.01997491 13.41015279 -0.02409142 C17.80562116 -0.03411237 22.20107587 -0.03782837 26.59655404 -0.04048073 C31.33428481 -0.04438349 36.07200476 -0.05396184 40.80972862 -0.0626936 C52.25499955 -0.08245858 63.70027135 -0.09252416 75.14555508 -0.10142139 C80.53468544 -0.10580414 85.92381483 -0.11117098 91.31294441 -0.11641026 C109.2264142 -0.1334224 127.13988336 -0.14791682 145.05335999 -0.155159 C149.7022826 -0.15706891 154.3512052 -0.15898924 159.00012779 -0.16094494 C160.15560121 -0.16142868 161.31107463 -0.16191242 162.5015624 -0.16241082 C181.22164366 -0.17071204 199.94166103 -0.1960506 218.66171439 -0.22852562 C237.87888148 -0.26159137 257.09601611 -0.27960731 276.3132118 -0.28280324 C287.1038963 -0.28496875 297.89448764 -0.2937236 308.68514442 -0.31926441 C317.87450065 -0.34096475 327.06374108 -0.34902508 336.25312002 -0.33929763 C340.94094404 -0.33475105 345.62852912 -0.33666004 350.31632042 -0.35605907 C354.61103526 -0.37367785 358.90533661 -0.37270351 363.20005576 -0.35716178 C364.75057995 -0.35478376 366.30113267 -0.35911939 367.85161324 -0.37099043 C378.10950889 -0.44463992 386.03985589 0.64675375 394.78870201 6.25922108 C403.83505371 15.93671359 403.62541699 26.85760286 403.60991478 39.36085987 C403.61178452 40.71270949 403.61408587 42.06455858 403.6167801 43.41640681 C403.62288435 47.12100765 403.62276613 50.82558587 403.62158573 54.53019059 C403.62138137 58.52961805 403.62690378 62.52903831 403.6316433 66.52846241 C403.63994278 74.36017647 403.64269782 82.191883 403.64325567 90.02360109 C403.64373115 96.39062675 403.64578748 102.75764993 403.6489563 109.1246748 C403.65776082 127.1833717 403.66237597 145.24206267 403.66162582 163.30076174 C403.66156589 164.76048598 403.66156589 164.76048598 403.66150475 166.24969959 C403.66146386 167.22403962 403.66142298 168.19837965 403.66138086 169.20224514 C403.66097441 184.99277884 403.67054426 200.7832887 403.68464311 216.5738155 C403.69901137 232.7942851 403.70591305 249.01474306 403.70504934 265.23521918 C403.70471753 274.33902792 403.70745745 283.44281165 403.71822739 292.54661465 C403.72733828 300.2975846 403.72950277 308.04851821 403.72271796 315.7994912 C403.71945579 319.75209924 403.71938514 323.70463758 403.72807121 327.65723896 C403.73595047 331.2800368 403.73449029 334.90270983 403.72578708 338.52550467 C403.72353306 340.4474272 403.73106952 342.36935364 403.73902673 344.29126102 C403.69631262 355.04825772 403.12535087 364.95431495 395.47620201 373.13422108 C388.53578384 378.34500822 383.14512931 380.26841145 374.52307701 380.23187733 C373.86285545 380.23046238 373.2026339 380.22904743 372.52240562 380.22758961 C370.42362407 380.22201352 368.32495107 380.20946554 366.22620201 380.19672108 C364.79912022 380.19170298 363.37203676 380.18714061 361.94495201 380.1830492 C358.45533369 380.17205196 354.96577845 380.15480388 351.47620201 380.13422108 C351.48667564 381.29357166 351.49714928 382.45292225 351.50794029 383.64740467 C351.54441397 387.9898206 351.56720115 392.33222326 351.58606529 396.67474842 C351.59606095 398.54651645 351.60966198 400.41826912 351.62708092 402.2899828 C351.65161469 404.99591354 351.66274969 407.70163606 351.67151451 410.40765858 C351.68699837 411.64266605 351.68699837 411.64266605 351.70279503 412.90262318 C351.70461444 422.53881505 350.59309388 430.75046183 343.75354576 437.94672108 C334.33844157 446.93131354 323.8541386 446.55177889 311.62854576 446.42718983 C310.00473487 446.42158535 308.38091886 446.41731928 306.75710106 446.41432667 C302.51065298 446.4029448 298.26451922 446.37353611 294.0181942 446.34021473 C289.67416191 446.30936917 285.33007818 446.29579056 280.98596764 446.28070545 C272.48256918 446.24865905 263.97942484 446.19754473 255.47620201 446.13422108 C255.49714928 447.32499256 255.51809654 448.51576405 255.53967857 449.74261951 C255.61211163 454.16306997 255.65801373 458.58346803 255.69592857 463.00433826 C255.71603653 464.91718843 255.74332708 466.82997719 255.77795982 468.74261951 C255.8265145 471.49309919 255.84917859 474.24276585 255.86682701 476.99359608 C255.89779472 478.27505512 255.89779472 478.27505512 255.92938805 479.58240223 C255.92969017 480.38293018 255.92999229 481.18345814 255.93030357 482.00824451 C255.93918602 482.70995777 255.94806847 483.41167103 255.95722008 484.13464832 C255.25011414 487.07405926 253.78057904 488.22550331 251.47620201 490.13422108 C248.99616051 490.63758564 248.99616051 490.63758564 246.16272545 490.64215565 C244.54763084 490.65907459 244.54763084 490.65907459 242.89990807 490.67633533 C241.13556419 490.66418995 241.13556419 490.66418995 239.33557701 490.6517992 C237.47165306 490.66231312 237.47165306 490.66231312 235.57007408 490.67303944 C232.16485015 490.6876298 228.76059819 490.68420855 225.3554287 490.67152309 C221.79118103 490.66139224 218.22697475 490.670789 214.66272545 490.67706776 C208.67729807 490.68434395 202.69206815 490.67475735 196.70667076 490.65570545 C189.78781244 490.63393654 182.86942559 490.64098795 175.95057869 490.66301107 C170.00904239 490.68116602 164.06764799 490.683723 158.12609291 490.6732564 C154.5779631 490.6670219 151.03005487 490.66618437 147.48193932 490.67940235 C143.5267156 490.69310786 139.57201953 490.67410943 135.61682701 490.6517992 C134.44059776 490.65989613 133.26436852 490.66799305 132.05249596 490.67633533 C130.97576622 490.66505604 129.89903648 490.65377674 128.78967857 490.64215565 C127.854645 490.64064754 126.91961143 490.63913944 125.95624352 490.63758564 C122.50380151 489.93685666 121.43713878 489.07685504 119.47620201 486.13422108 C118.93708762 483.0795151 119.01081992 480.08708081 119.08557701 476.99359608 C119.0912368 476.11141407 119.09689659 475.22923206 119.10272789 474.32031727 C119.1250861 471.50772894 119.17528069 468.69642313 119.22620201 465.88422108 C119.24626776 463.97538533 119.2645184 462.06652958 119.28088951 460.15765858 C119.32494901 455.48268663 119.39397217 450.80867116 119.47620201 446.13422108 C118.57413112 446.13790825 117.67206022 446.14159542 116.74265385 446.14539433 C94.76591689 446.23383559 72.78921073 446.29997459 50.81233311 446.34146976 C40.18435514 446.36207128 29.55649617 446.39014577 18.92859459 446.43597889 C9.6623984 446.47592048 0.39628841 446.5016714 -8.86999148 446.51057506 C-13.77379926 446.5157774 -18.67736047 446.52795447 -23.58108902 446.5571413 C-28.20300324 446.58442617 -32.82457089 446.5926398 -37.446558 446.5866518 C-39.13675448 446.58774622 -40.82696336 446.59562192 -42.51708984 446.61104298 C-53.41617151 446.7055545 -63.92324076 446.57586447 -72.46129799 438.88422108 C-80.96852646 429.33654021 -80.67263175 419.10336787 -80.65751076 406.90758228 C-80.6593805 405.55573266 -80.66168185 404.20388358 -80.66437608 402.85203534 C-80.67048032 399.14743451 -80.67036211 395.44285628 -80.6691817 391.73825157 C-80.66897735 387.7388241 -80.67449975 383.73940384 -80.67923927 379.73997974 C-80.68753875 371.90826568 -80.69029379 364.07655915 -80.69085165 356.24484106 C-80.69132713 349.87781541 -80.69338346 343.51079223 -80.69655228 337.14376736 C-80.7053568 319.08507045 -80.70997195 301.02637948 -80.7092218 282.96768042 C-80.70918185 281.99453092 -80.70914189 281.02138143 -80.70910072 280.01874256 C-80.70905984 279.04440253 -80.70901896 278.0700625 -80.70897684 277.06619702 C-80.70857039 261.27566331 -80.71814024 245.48515346 -80.73223909 229.69462665 C-80.74660735 213.47415706 -80.75350903 197.25369909 -80.75264531 181.03322297 C-80.75231351 171.92941424 -80.75505343 162.82563051 -80.76582336 153.72182751 C-80.77493426 145.97085755 -80.77709875 138.21992394 -80.77031394 130.46895095 C-80.76705177 126.51634291 -80.76698112 122.56380458 -80.77566719 118.61120319 C-80.78354645 114.98840536 -80.78208627 111.36573233 -80.77338306 107.74293748 C-80.77112904 105.82101496 -80.7786655 103.89908851 -80.7866227 101.97718114 C-80.74278257 90.93660851 -79.94422114 81.72628999 -72.52379799 73.13422108 C-66.50876498 67.59228055 -60.31109915 65.87151611 -52.15661049 65.93890858 C-51.47702278 65.94173847 -50.79743507 65.94456837 -50.0972538 65.94748402 C-47.94758191 65.95859143 -45.79834185 65.98367717 -43.64879799 66.00922108 C-42.18265821 66.01926313 -40.71651185 66.02838683 -39.25036049 66.03656483 C-35.67470168 66.05849948 -32.09929205 66.09296293 -28.52379799 66.13422108 C-28.53950844 64.34190052 -28.53950844 64.34190052 -28.55553627 62.51337147 C-28.59195681 58.04611724 -28.61477819 53.57887593 -28.63366127 49.111516 C-28.64366886 47.18441015 -28.65727909 45.2573193 -28.6746769 43.330266 C-28.69915719 40.54743195 -28.71033377 37.76480007 -28.71911049 34.98187733 C-28.72943306 34.13150394 -28.73975563 33.28113056 -28.75039101 32.40498829 C-28.75216185 22.79043071 -27.19880113 14.3949898 -20.52379799 7.13422108 C-13.78080555 2.0610233 -8.3849608 0.0127993 0 0 Z M-12.33629799 20.07172108 C-14.64092303 24.07449088 -14.64754722 28.31331041 -14.63732338 32.84247303 C-14.63724785 33.96325748 -14.63717232 35.08404194 -14.6370945 36.23878956 C-14.63193321 37.43791477 -14.62677193 38.63703999 -14.62145424 39.87250233 C-14.62003929 41.10840611 -14.61862434 42.34430988 -14.61716652 43.61766529 C-14.61252417 46.89080453 -14.6035511 50.16389395 -14.59246254 53.43701649 C-14.58220203 56.78204356 -14.5777443 60.12707281 -14.57262611 63.4721117 C-14.56245845 70.02618774 -14.54288137 76.58014067 -14.52379799 83.13422108 C-0.33379799 83.13422108 13.85620201 83.13422108 28.47620201 83.13422108 C28.64641627 74.80313804 28.64641627 74.80313804 28.77405357 66.47137928 C28.80466881 65.42812489 28.83528404 64.38487049 28.86682701 63.31000233 C28.88777428 62.2469286 28.90872154 61.18385487 28.93030357 60.08856678 C29.61906849 56.36104253 30.74723111 54.74886714 33.47620201 52.13422108 C37.78914543 50.36157529 41.46298297 49.87835558 46.10486412 49.85956287 C47.40318672 49.85003086 48.70150932 49.84049885 50.03917503 49.83067799 C51.44396555 49.83093944 52.84875609 49.83187661 54.25354576 49.83343983 C55.70793847 49.82954811 57.16233006 49.82521246 58.6167202 49.8204546 C61.65870416 49.81301175 64.70057202 49.81326965 67.74255943 49.81854725 C71.62727856 49.82434094 75.51152075 49.80740433 79.39616108 49.78420258 C82.39802865 49.76942139 85.39978248 49.76859944 88.40167999 49.7717123 C89.8333137 49.77120134 91.26495415 49.76600617 92.69655228 49.75590038 C108.78127016 49.65627613 108.78127016 49.65627613 115.71765709 55.90570545 C116.82075867 57.00275879 117.91307648 58.11073635 118.99573326 59.22797108 C119.58037849 59.81590443 120.16502373 60.40383778 120.76738548 61.00958729 C122.61741398 62.87526212 124.45279251 64.7546626 126.28870201 66.63422108 C127.53978348 67.89680414 128.79172893 69.15853171 130.04456139 70.41937733 C131.23740116 71.62563531 132.42948544 72.83264093 133.62073326 74.04047108 C134.17904335 74.6061681 134.73735344 75.17186512 135.31258202 75.75470448 C137.6256099 78.12506603 139.63332718 80.36990883 141.47620201 83.13422108 C143.3677355 83.58273312 143.3677355 83.58273312 145.57978821 83.50336456 C146.44416901 83.50933771 147.30854982 83.51531085 148.19912398 83.521465 C149.6319818 83.50835722 149.6319818 83.50835722 151.09378624 83.49498463 C152.10413252 83.4975479 153.11447881 83.50011118 154.15544164 83.50275213 C157.5628138 83.50771893 160.96974915 83.49114927 164.37708092 83.47479725 C166.81084241 83.4739516 169.24460466 83.47442489 171.67836571 83.47612476 C176.92930564 83.47680934 182.18014561 83.46826485 187.43105507 83.45141125 C195.0230347 83.42705944 202.61496022 83.41921991 210.20697467 83.41544727 C222.52363575 83.40887677 234.84023732 83.38889942 247.15686607 83.36053944 C259.12333439 83.33301433 271.08978656 83.31177318 283.05628014 83.299016 C283.7935426 83.29822783 284.53080506 83.29743966 285.29040881 83.2966276 C288.98893303 83.29271257 292.68745738 83.28892143 296.3859818 83.28519189 C327.08276448 83.25407735 357.779475 83.20100276 388.47620201 83.13422108 C388.59227112 75.2845801 388.68100523 67.43514172 388.73526287 59.58485699 C388.76130995 55.93921855 388.79661572 52.29416904 388.85339928 48.64886951 C388.90789788 45.12805017 388.93765931 41.60779568 388.95058823 38.08658695 C388.96426505 36.09567331 389.00327059 34.10498562 389.04268456 32.11441517 C389.24282027 24.78757711 389.24282027 24.78757711 386.19568443 18.38861561 C381.67915775 14.64450865 378.8981685 13.8841005 373.00370026 13.87695217 C372.02697032 13.87169306 372.02697032 13.87169306 371.03050846 13.8663277 C368.83939909 13.85699266 366.64855428 13.86194234 364.4574337 13.86679554 C362.87433209 13.86306034 361.29123232 13.85845934 359.70813549 13.85306489 C355.35053115 13.84080345 350.99300341 13.84109905 346.63538575 13.84345365 C341.93862547 13.84386102 337.24189 13.83283032 332.54514122 13.82333851 C323.34073248 13.80671053 314.13634936 13.80122816 304.93192686 13.80011375 C297.45209204 13.79916417 289.97226569 13.79505838 282.49243355 13.7887125 C261.29684492 13.77109552 240.10127656 13.7618744 218.90568055 13.76337345 C217.7625122 13.76345336 216.61934386 13.76353327 215.44153404 13.76361561 C213.72469374 13.76373825 213.72469374 13.76373825 211.97316979 13.76386337 C193.41851168 13.7646765 174.86393471 13.74553331 156.30930008 13.71733887 C137.26842973 13.68863332 118.22759897 13.67479728 99.18670642 13.67652643 C88.492288 13.67719111 77.79795464 13.67166438 67.10355568 13.65017033 C57.99898522 13.63198918 48.89453838 13.62758593 39.78995766 13.64118917 C35.14313855 13.64773424 30.49655681 13.64778073 25.84976006 13.63048267 C21.59718798 13.6148147 17.34504274 13.61755092 13.09248148 13.63505094 C11.5527987 13.63813473 10.01308456 13.63443679 8.47343875 13.62333079 C6.38190278 13.60924116 4.29187056 13.61976854 2.20038605 13.63644314 C1.03833181 13.6360084 -0.12372244 13.63557367 -1.32099044 13.63512576 C-6.0183542 14.36711862 -9.12481367 16.63875508 -12.33629799 20.07172108 Z M42.47620201 63.13422108 C42.46161949 63.79430164 42.44703697 64.45438221 42.43201256 65.13446522 C42.35705589 68.15577505 42.26055395 71.17603703 42.16370201 74.19672108 C42.14114342 75.23506092 42.11858482 76.27340076 42.09534264 77.34320545 C41.8872288 83.30282895 41.49527544 87.93201904 38.47620201 93.13422108 C35.50667606 95.87181742 33.52972231 96.51497468 29.52405357 96.56659412 C28.54333885 96.58638828 27.56262413 96.60618244 26.55219078 96.62657642 C25.50102074 96.63296635 24.44985069 96.63935627 23.36682701 96.64593983 C22.2848806 96.66389103 21.20293419 96.68184223 20.08820152 96.70033741 C16.63424127 96.75449744 13.18041967 96.78835511 9.72620201 96.82172108 C7.38373478 96.85488904 5.04128585 96.88937821 2.69885826 96.9252367 C-3.04190283 97.01022719 -8.78268174 97.07855306 -14.52379799 97.13422108 C-14.56942587 129.62795054 -14.60481874 162.12167078 -14.62592865 194.61542496 C-14.62843005 198.45184989 -14.6310187 202.28827476 -14.63366127 206.12469959 C-14.63418589 206.8884608 -14.63471051 207.65222201 -14.63525103 208.4391275 C-14.64395298 220.80487353 -14.65972181 233.17060096 -14.67810358 245.53633595 C-14.69680845 258.22527784 -14.70791596 270.91420998 -14.71197498 283.60316509 C-14.71471882 291.43254587 -14.72338423 299.26187407 -14.73963092 307.09123867 C-14.75145528 313.09540244 -14.75270784 319.09952102 -14.75001335 325.10369778 C-14.75056406 327.56636091 -14.75454872 330.02902601 -14.76220894 332.49167728 C-14.7721509 335.85242144 -14.76976943 339.21294015 -14.76430702 342.57368946 C-14.7701327 343.54938233 -14.77595839 344.52507521 -14.78196061 345.53033453 C-14.80933935 354.24109425 -14.80933935 354.24109425 -11.08629799 361.87640858 C-6.78245435 364.99669522 -4.69857463 366.25963671 0.57608604 366.25447559 C2.19572762 366.25653759 2.19572762 366.25653759 3.84808922 366.25864124 C5.0377932 366.25504597 6.22749718 366.25145069 7.45325279 366.24774647 C9.32637642 366.24796551 9.32637642 366.24796551 11.23734093 366.24818897 C14.66688864 366.2476106 18.09637658 366.24258626 21.52591372 366.23561502 C25.10804539 366.22937486 28.6901778 366.22877715 32.27231407 366.22758961 C39.05795451 366.22447825 45.8435789 366.21626749 52.62921226 366.20624012 C60.35341417 366.19507292 68.07761684 366.189567 75.80182481 366.18454468 C91.69329319 366.17408472 107.58474553 366.15648905 123.47620201 366.13422108 C121.43579817 364.09381724 120.15242359 363.52238676 117.53870201 362.44672108 C114.24436326 360.82351053 113.48487085 360.14788107 111.41370201 356.88422108 C108.99870931 347.22425028 113.63332263 340.31341577 118.22620201 332.07172108 C118.91140478 330.82037342 119.59563601 329.56849332 120.27893639 328.31610584 C122.32499713 324.57774336 124.39623866 320.85380685 126.47620201 317.13422108 C127.05047935 316.10683826 127.6247567 315.07945545 128.21643639 314.02093983 C130.85109955 309.32367547 133.5060056 304.63825756 136.17151451 299.95843983 C139.77510828 293.62455564 143.31630039 287.25663481 146.85120201 280.88422108 C147.474786 279.76072254 148.09836998 278.63722401 148.74085045 277.47968006 C151.30455447 272.85875185 153.86659055 268.236906 156.4244442 263.6127367 C160.18508708 256.81433033 163.95692343 250.02238975 167.74670982 243.24017811 C169.40511744 240.26188029 171.04662973 237.27474573 172.68713951 234.28656483 C173.65756046 232.54776242 174.62885492 230.80944711 175.60120201 229.07172108 C176.02627037 228.28603748 176.45133873 227.50035389 176.88928795 226.6908617 C178.70928578 223.47635793 179.82094449 221.51587636 183.05823326 219.63031483 C186.50987783 218.92214219 189.07019694 219.26723797 192.47620201 220.13422108 C195.82858766 222.96564167 197.7613036 226.08434236 199.83948326 229.91937733 C200.47120445 231.07582752 201.10292564 232.23227772 201.7537899 233.42377186 C202.43211948 234.68140782 203.11042283 235.93905793 203.78870201 237.19672108 C204.50072406 238.50427895 205.21354598 239.81140155 205.92712975 241.1181078 C207.39579097 243.80819749 208.86165381 246.49978328 210.32581139 249.19232655 C213.52606521 255.06871647 216.78268591 260.91357447 220.03870201 266.75922108 C221.27969839 268.99093021 222.5205837 271.22270111 223.76135826 273.45453358 C224.37382408 274.55571522 224.9862899 275.65689686 225.61731529 276.79144764 C227.48645141 280.15265223 229.35457643 283.51441653 231.22229576 286.87640858 C231.84225426 287.99233387 232.46221275 289.10825916 233.10095787 290.25800037 C234.34559393 292.49886381 235.58990031 294.73991039 236.83386803 296.98114491 C240.04930275 302.77297675 243.27211152 308.56052602 246.50745201 314.34125233 C249.66251615 319.97982865 252.79617953 325.62984364 255.90979576 331.29144764 C256.87544826 333.0439504 257.84580504 334.79388213 258.82385826 336.53949451 C264.99459113 347.5826625 264.99459113 347.5826625 264.60120201 352.69672108 C262.13370937 360.23628192 262.13370937 360.23628192 258.27698326 362.32562733 C256.03205788 363.33707722 253.78109438 364.26928243 251.47620201 365.13422108 C251.47620201 365.46422108 251.47620201 365.79422108 251.47620201 366.13422108 C268.06166718 366.22770689 284.64704674 366.29822097 301.23271179 366.34146976 C308.93391928 366.36208566 316.63496295 366.39018745 324.33606529 366.43597889 C331.04919558 366.47587669 337.76220722 366.50166097 344.47545278 366.51057506 C348.0293658 366.5157849 351.58293942 366.52800905 355.13674355 366.5571413 C359.10624311 366.58941658 363.07541213 366.59017858 367.04504967 366.58832264 C368.80803398 366.60989429 368.80803398 366.60989429 370.60663414 366.63190174 C376.86866131 366.60017409 380.78633335 366.4565072 385.47620201 362.13422108 C388.0413695 359.21327071 388.85093402 357.4480595 388.8453455 353.56589603 C388.85131864 352.64876559 388.85729179 351.73163516 388.86344594 350.78671288 C388.85470741 349.78282675 388.84596889 348.77894061 388.83696556 347.74463367 C388.83952884 346.67540881 388.84209211 345.60618394 388.84473306 344.50455832 C388.84968746 340.90993212 388.8331503 337.31572286 388.81677818 333.72113514 C388.81593227 331.14914936 388.81640635 328.57716286 388.8181057 326.0051775 C388.81967917 320.46179582 388.81026229 314.91852003 388.79339218 309.37516499 C388.76901673 301.36041046 388.76119841 293.34570717 388.75742821 285.33091959 C388.75086144 272.32766163 388.73089416 259.32446011 388.70252037 246.3212328 C388.67498564 233.68939973 388.65374919 221.057582 388.64099693 208.42572498 C388.64020876 207.64717003 388.63942059 206.86861508 388.63860854 206.06646755 C388.63469344 202.16070759 388.63090231 198.25494752 388.62717283 194.34918737 C388.59606989 161.94415759 388.54322795 129.53919717 388.47620201 97.13422108 C386.54411794 97.13202124 386.54411794 97.13202124 384.57300186 97.12977695 C354.00021427 97.09407841 323.42754122 97.03784228 292.85484415 96.95630012 C289.09223726 96.94628261 285.32962994 96.93643849 281.56702232 96.92670155 C280.44341666 96.92378949 280.44341666 96.92378949 279.29711188 96.9208186 C267.16673281 96.88979371 255.03637266 96.87281659 242.90596138 96.86102685 C230.45992181 96.84861781 218.01398159 96.82112204 205.56800473 96.77960801 C197.88754387 96.75446545 190.20724775 96.74110434 182.52674516 96.7427915 C176.63828055 96.74282476 170.75000833 96.72187219 164.86161041 96.69305325 C162.44530926 96.68452206 160.02897301 96.682826 157.61266327 96.68841839 C154.31695906 96.69503108 151.02226249 96.67720183 147.72665977 96.65320301 C146.7675088 96.66096343 145.80835783 96.66872385 144.82014167 96.67671943 C135.108775 96.55128287 130.45870397 91.38005641 123.91370201 84.70843983 C121.89646855 82.57806026 119.94814472 80.42287424 118.03870201 78.19672108 C117.51681801 77.60462345 116.99493401 77.01252583 116.45723534 76.40248585 C115.01580769 74.75206457 113.61092084 73.06951227 112.22893333 71.36900806 C107.43601349 65.92948283 104.18448914 62.49107664 96.62781334 61.88544178 C94.10394974 61.88715996 91.57960885 61.94795069 89.05823326 62.06000233 C87.70638492 62.08057436 86.35445334 62.09620613 85.0024929 62.10716724 C81.48047333 62.14874514 77.96361734 62.2563721 74.44360924 62.37891102 C70.83734557 62.49239198 67.23022898 62.54187577 63.62268639 62.5971117 C56.57177275 62.71432429 49.52432812 62.90150152 42.47620201 63.13422108 Z M-62.52379799 83.13422108 C-65.38691339 86.72596994 -65.89989576 89.44779481 -65.90690804 93.98013687 C-65.91596467 95.15681283 -65.92502131 96.3334888 -65.9343524 97.54582161 C-65.92902447 98.83452331 -65.92369655 100.12322501 -65.91820717 101.45097828 C-65.92309641 102.83695535 -65.92928637 104.22292835 -65.93666506 105.60889441 C-65.95308349 109.417004 -65.95074284 113.22490682 -65.94529009 117.03303945 C-65.94262225 121.14015175 -65.957147 125.24720864 -65.96938515 129.35429859 C-65.99045127 137.4001936 -65.99497934 145.44601657 -65.99319726 153.4919359 C-65.99189031 160.03067633 -65.99569036 166.56939426 -66.00312233 173.10813046 C-66.00522149 174.99065846 -66.00731909 176.87318647 -66.00941515 178.75571448 C-66.01045868 179.69265898 -66.01150221 180.62960349 -66.01257735 181.59494025 C-66.03148426 199.31936136 -66.03042805 217.04374109 -66.02360803 234.7681681 C-66.01803136 250.98837664 -66.03886247 267.20842729 -66.0719685 283.42859893 C-66.10568804 300.07840253 -66.12087606 316.72813046 -66.11625147 333.37796885 C-66.11400513 342.72764992 -66.119274 352.07718503 -66.14414406 361.42683697 C-66.16513471 369.38590646 -66.16877142 377.34474995 -66.14984447 385.30382865 C-66.14067299 389.36541753 -66.13958635 393.42658478 -66.16020012 397.48814106 C-66.17886114 401.20602117 -66.17446254 404.92313289 -66.1516543 408.64098329 C-66.14546658 410.62363279 -66.16389971 412.60631184 -66.18319082 414.58887714 C-66.26090241 421.65995581 -66.26090241 421.65995581 -63.29745674 427.84945488 C-58.31000099 431.95780826 -54.68010149 432.38390753 -48.27884865 432.37473011 C-47.55995486 432.37643896 -46.84106107 432.37814781 -46.10038263 432.37990844 C-43.6973922 432.38319628 -41.29468251 432.37221141 -38.89171791 432.36127186 C-37.16686446 432.36070759 -35.44201053 432.36102461 -33.71715736 432.36215687 C-29.03780851 432.36273078 -24.35856216 432.35097024 -19.67923713 432.33700895 C-14.78785519 432.324508 -9.89647091 432.32333159 -5.00507545 432.32095814 C4.25605615 432.31474151 13.51714054 432.29832819 22.77825135 432.27825916 C33.3222955 432.25590587 43.8663419 432.24490816 54.41040385 432.23486829 C76.09902959 432.21396214 97.78761282 432.17878258 119.47620201 432.13422108 C119.49807579 430.94663197 119.49807579 430.94663197 119.52039146 429.73505116 C119.59498557 426.13845564 119.69161034 422.54277665 119.78870201 418.94672108 C119.8225399 417.07790272 119.8225399 417.07790272 119.85706139 415.17133045 C119.8925106 413.96927967 119.92795982 412.76722889 119.96448326 411.52875233 C120.00375938 409.87129993 120.00375938 409.87129993 120.04382896 408.18036366 C120.63455678 404.01858447 122.26454446 401.37088991 125.17932701 398.39593983 C128.39239255 396.63093954 131.63921973 396.3162684 135.22620201 395.94672108 C135.92358482 395.86486561 136.62096764 395.78301014 137.33948326 395.6986742 C139.05046977 395.49944975 140.76320238 395.31532178 142.47620201 395.13422108 C142.53807701 393.95859608 142.59995201 392.78297108 142.66370201 391.57172108 C142.6985067 390.91043201 142.73331139 390.24914295 142.76917076 389.56781483 C142.35476764 386.12550626 140.8720243 383.28810326 139.47620201 380.13422108 C138.73297503 380.13275452 137.98974804 380.13128796 137.22399902 380.12977695 C119.11128971 380.09267052 100.99877265 380.03360503 82.88621521 379.95031834 C74.12698256 379.91056639 65.36783926 379.87815442 56.60852623 379.86322498 C48.97088102 379.85018848 41.33343271 379.82317302 33.69589841 379.77960801 C29.65457677 379.75703793 25.61349757 379.74130771 21.57210732 379.74233723 C17.76181021 379.74308649 13.95204814 379.72502995 10.14188957 379.69305325 C8.74964021 379.68459168 7.35733057 379.6827787 5.96506691 379.68841839 C-3.71527666 379.72238303 -10.9478972 378.35585264 -19.33629799 373.50922108 C-27.22826369 364.94080117 -27.67174417 355.02646845 -27.68201637 343.9726305 C-27.68695435 342.84452705 -27.69189233 341.7164236 -27.69697994 340.5541352 C-27.71234345 336.77240098 -27.72071251 332.99068372 -27.72912025 329.20892811 C-27.73815497 326.49871416 -27.74866672 323.78850642 -27.75911903 321.07829762 C-27.78085255 315.24252622 -27.79900843 309.40675253 -27.81472397 303.57096195 C-27.8374511 295.1334229 -27.86558996 286.6959087 -27.89504325 278.25839077 C-27.94268433 264.56857436 -27.98595794 250.87874777 -28.02648354 237.18890858 C-28.0658562 223.8917 -28.10728666 210.59450047 -28.15148354 197.29730701 C-28.15420781 196.47745957 -28.15693208 195.65761213 -28.15973891 194.81292082 C-28.17341868 190.69992492 -28.18713889 186.58692916 -28.20087922 182.47393346 C-28.31478926 148.36071469 -28.4216107 114.24747693 -28.52379799 80.13422108 C-33.06534276 80.04686645 -37.6066703 79.9937086 -42.14879799 79.94672108 C-43.4339933 79.92158436 -44.71918861 79.89644764 -46.04332924 79.8705492 C-47.28727455 79.86088123 -48.53121986 79.85121326 -49.81286049 79.84125233 C-50.95448647 79.82554188 -52.09611244 79.80983143 -53.27233315 79.79364491 C-57.05161277 80.18950728 -59.33806811 81.0693129 -62.52379799 83.13422108 Z M179.47620201 250.13422108 C171.78609807 263.95467528 164.11052899 277.7828709 156.47620201 291.63422108 C151.17774112 301.24621097 145.8669316 310.85119853 140.53870201 320.44672108 C139.91995201 321.56296864 139.30120201 322.67921619 138.66370201 323.82928944 C135.97470225 328.67333665 133.27357959 333.50785008 130.50354576 338.30609608 C129.85277061 339.43857777 129.85277061 339.43857777 129.1888485 340.59393787 C128.40770162 341.94848146 127.61994261 343.29924413 126.8241024 344.64520741 C125.98111514 346.1083939 125.21841636 347.61742838 124.47620201 349.13422108 C125.79433277 351.7704826 127.53992478 352.20842674 130.13611412 353.39032459 C141.4661665 358.56466777 147.18558933 364.78205699 153.03088951 375.88812733 C155.13097805 382.0578469 155.61484519 388.67404493 156.47620201 395.13422108 C176.93620201 395.13422108 197.39620201 395.13422108 218.47620201 395.13422108 C219.46620201 387.70922108 219.46620201 387.70922108 220.47620201 380.13422108 C225.83153685 367.12840791 232.61468845 358.99784086 245.47620201 353.13422108 C247.13728098 352.45375148 248.80235486 351.78264835 250.47620201 351.13422108 C249.04909243 347.37469136 247.35296315 343.87434147 245.45667076 340.32953358 C244.85347008 339.20103992 244.25026939 338.07254627 243.6287899 336.90985584 C242.97402594 335.6928348 242.31898971 334.4759602 241.66370201 333.25922108 C241.32918022 332.63619099 240.99465843 332.0131609 240.64999962 331.37125111 C235.70456483 322.16408557 230.645939 313.02807688 225.47205162 303.94696522 C220.98663048 296.06824331 216.59644015 288.13966679 212.22620201 280.19672108 C206.69510804 270.14609364 201.13410243 260.11412876 195.47620201 250.13422108 C195.14620201 250.13422108 194.81620201 250.13422108 194.47620201 250.13422108 C194.27775972 254.3148658 194.13298706 258.49299106 194.03674889 262.67694569 C193.9966233 264.09832988 193.94210289 265.51938594 193.87268639 266.939641 C193.12233487 275.05275997 193.12233487 275.05275997 196.2069149 282.08173084 C198.2990128 283.41172908 198.2990128 283.41172908 200.50574303 284.23090076 C204.49822787 286.06118126 205.74879897 290.19447962 207.22620201 294.13422108 C208.01424445 300.43856062 207.42847691 305.52489876 204.47620201 311.13422108 C200.64470542 315.79414936 196.80980956 318.74866985 190.70667076 319.45453358 C184.25124233 319.69813465 178.59027352 319.39594733 173.47620201 315.13422108 C168.62546423 309.21632098 166.96692957 303.77330772 167.47620201 296.13422108 C168.82906539 290.53102314 170.98338091 286.87823867 175.47620201 283.13422108 C176.34527184 282.73549793 177.21434166 282.33677479 178.10974693 281.92596912 C180.80498975 280.30429049 180.80498975 280.30429049 181.04382896 277.03973866 C181.01764488 275.79861317 180.9914608 274.55748768 180.96448326 273.27875233 C180.95387115 272.28629757 180.95387115 272.28629757 180.94304466 271.27379322 C180.91508708 269.16361123 180.85236048 267.05609848 180.78870201 264.94672108 C180.76362025 263.51511883 180.74080684 262.0834749 180.72034264 260.6517992 C180.66526048 257.14507457 180.5789849 253.63990837 180.47620201 250.13422108 C180.14620201 250.13422108 179.81620201 250.13422108 179.47620201 250.13422108 Z M182.03870201 295.25922108 C180.21178302 298.05582487 180.21178302 298.05582487 180.53870201 301.32172108 C181.2551103 304.43022816 181.2551103 304.43022816 184.47620201 306.13422108 C187.43366694 306.71767583 187.43366694 306.71767583 190.47620201 306.13422108 C193.04769591 304.06573238 193.04769591 304.06573238 194.47620201 301.13422108 C194.40727782 298.239405 193.86481519 296.7273675 192.28870201 294.32172108 C188.43073725 291.79408899 185.40688843 292.32285343 182.03870201 295.25922108 Z M235.47620201 380.13422108 C232.67467921 385.9857292 232.67467921 385.9857292 232.28870201 391.57172108 C232.35057701 392.74734608 232.41245201 393.92297108 232.47620201 395.13422108 C233.27284264 395.17160389 234.06948326 395.2089867 234.89026451 395.24750233 C241.68390686 395.66900568 246.88168023 396.15944443 252.28870201 400.63422108 C254.85309373 403.87345272 254.66255329 407.37605281 254.79260826 411.33343983 C254.83450279 412.54193592 254.87639732 413.75043201 254.91956139 414.9955492 C254.95887779 416.25818592 254.9981942 417.52082264 255.03870201 418.82172108 C255.0818856 420.09595936 255.1250692 421.37019764 255.16956139 422.6830492 C255.27575061 425.83332959 255.37779734 428.98368947 255.47620201 432.13422108 C264.62978958 432.20381911 273.78328566 432.257082 282.93708038 432.28965759 C287.18784641 432.30529451 291.43843101 432.32649652 295.68909264 432.36053944 C299.79341852 432.3932036 303.8975702 432.41108894 308.00201607 432.41885281 C309.56567564 432.42438368 311.12932599 432.4351842 312.69291115 432.45141125 C314.88797203 432.47327994 317.08231875 432.47618415 319.27747154 432.47479725 C321.1494471 432.48479 321.1494471 432.48479 323.05924034 432.49498463 C328.04812184 431.96825744 331.30385147 430.33825676 334.78870201 426.75922108 C342.30134714 415.0728842 337.47620201 383.7840806 337.47620201 380.13422108 C303.81620201 380.13422108 270.15620201 380.13422108 235.47620201 380.13422108 Z M133.47620201 409.13422108 C133.47620201 431.24422108 133.47620201 453.35422108 133.47620201 476.13422108 C169.11620201 476.13422108 204.75620201 476.13422108 241.47620201 476.13422108 C241.47620201 454.02422108 241.47620201 431.91422108 241.47620201 409.13422108 C205.83620201 409.13422108 170.19620201 409.13422108 133.47620201 409.13422108 Z " fill="#000000" transform="translate(94.5237979888916,10.865778923034668)"/>
<path d="M0 0 C0.82072998 -0.0038269 1.64145996 -0.00765381 2.48706055 -0.01159668 C4.21501906 -0.01430765 5.94301917 -0.00700364 7.67089844 0.00976562 C10.3049735 0.03118879 12.93632154 0.00993818 15.5703125 -0.015625 C17.25521431 -0.01298158 18.94011443 -0.00785629 20.625 0 C21.79712036 -0.01214539 21.79712036 -0.01214539 22.99291992 -0.02453613 C28.20543214 0.06416216 31.16276981 1.11512158 35.3125 4.53125 C40.0008644 10.62612372 38.3125 15.02722064 38.3125 23.53125 C68.0125 23.53125 97.7125 23.53125 128.3125 23.53125 C129.7975 19.07625 129.7975 19.07625 131.3125 14.53125 C134.53490114 9.2134533 138.91325596 5.37610633 144.73046875 3.15625 C152.63654916 1.24252403 160.68496884 1.72927225 168.08984375 5.13671875 C173.2342701 8.36441683 177.77641494 13.60620805 179.87109375 19.36328125 C181.58883657 27.79998269 181.25043585 35.91285943 176.85546875 43.41015625 C172.29642027 49.67740517 166.91500402 53.02321232 159.3125 54.53125 C151.16342623 55.58568287 143.79055225 53.94980006 137.19921875 48.91796875 C133.11973289 45.10875939 132.20222678 43.20043034 130.3125 37.53125 C111.1725 37.86125 92.0325 38.19125 72.3125 38.53125 C76.6025 41.17125 80.8925 43.81125 85.3125 46.53125 C88.75101581 49.14120778 92.04465253 51.73175852 95.3125 54.53125 C96.14523437 55.22992188 96.97796875 55.92859375 97.8359375 56.6484375 C116.8178659 73.06050482 129.63017492 95.51183266 136.3125 119.53125 C136.3125 120.52125 136.3125 121.51125 136.3125 122.53125 C137.26511719 122.49644531 138.21773438 122.46164062 139.19921875 122.42578125 C140.45347656 122.39871094 141.70773437 122.37164062 143 122.34375 C144.24136719 122.30894531 145.48273438 122.27414062 146.76171875 122.23828125 C151.77122064 122.65160649 154.20746066 124.33412405 157.5625 127.96875 C161.61899931 133.90862399 160.53431913 141.19239277 160.55273438 148.12036133 C160.56242234 150.32606984 160.59346133 152.53083868 160.625 154.73632812 C160.63153292 156.15364035 160.63678226 157.57095918 160.640625 158.98828125 C160.6499707 160.26678955 160.65931641 161.54529785 160.66894531 162.86254883 C160.14999719 168.20380465 158.7941348 172.12369694 154.8125 175.90625 C150.46975566 178.72903382 146.5846162 178.70525662 141.57421875 178.734375 C140.81583206 178.74007507 140.05744537 178.74577515 139.27607727 178.75164795 C137.67145173 178.76108856 136.06680688 178.76762821 134.4621582 178.77148438 C132.01934545 178.78117327 129.57738039 178.8121974 127.13476562 178.84375 C125.57292164 178.85028227 124.01107166 178.85553186 122.44921875 178.859375 C121.72401535 178.8717218 120.99881195 178.8840686 120.25163269 178.89678955 C115.50742938 178.87617266 112.25481145 178.19807677 108.3125 175.53125 C104.09192204 170.76505938 103.718356 166.91349051 103.78125 160.84375 C103.7774231 160.02302002 103.77359619 159.20229004 103.76965332 158.35668945 C103.76694235 156.62873094 103.77424636 154.90073083 103.79101562 153.17285156 C103.81243879 150.5387765 103.79118818 147.90742846 103.765625 145.2734375 C103.76826842 143.58853569 103.77339371 141.90363557 103.78125 140.21875 C103.77315308 139.43733643 103.76505615 138.65592285 103.75671387 137.85083008 C103.84530454 132.64464187 104.87555345 129.66059873 108.3125 125.53125 C112.78931951 122.54670366 116.03189602 122.41876376 121.3125 122.53125 C111.50982579 92.54871167 93.74323755 66.50181039 65.11328125 51.80078125 C56.66976385 47.62912694 48.41950351 44.00269898 39.3125 41.53125 C39.12324951 42.18125977 38.93399902 42.83126953 38.73901367 43.50097656 C37.367275 48.12459228 36.25583318 51.47834689 32.3125 54.53125 C27.19222812 57.09138594 19.10111157 55.84469654 13.40136719 55.88134766 C11.51582479 55.8978875 9.63034459 55.92515159 7.74511719 55.96337891 C5.02245657 56.01829051 2.30126563 56.04004426 -0.421875 56.0546875 C-1.25958435 56.07735687 -2.0972937 56.10002625 -2.96038818 56.12338257 C-7.06202176 56.10865844 -9.86532814 55.84188343 -13.18066406 53.29931641 C-15.65135899 50.57115716 -16.53054864 49.28282411 -17.0625 45.71875 C-17.19398438 44.92855469 -17.32546875 44.13835937 -17.4609375 43.32421875 C-17.57308594 42.43669922 -17.57308594 42.43669922 -17.6875 41.53125 C-49.27175137 50.95111444 -74.13951721 68.70304509 -90.3359375 97.8671875 C-94.62540286 105.84156271 -97.96400497 113.89544414 -100.6875 122.53125 C-99.49125 122.469375 -98.295 122.4075 -97.0625 122.34375 C-92.88594477 122.36588722 -90.20261493 123.13458073 -86.6875 125.53125 C-82.64471582 130.41818264 -82.10161859 133.92937248 -82.19140625 140 C-82.18995102 140.79853394 -82.18849579 141.59706787 -82.18699646 142.4197998 C-82.18864944 144.1007046 -82.20014318 145.78162548 -82.22094727 147.46240234 C-82.24991542 150.02377122 -82.24154168 152.58306865 -82.22851562 155.14453125 C-82.23475374 156.78386415 -82.24314526 158.42319055 -82.25390625 160.0625 C-82.25097061 160.82203979 -82.24803497 161.58157959 -82.24501038 162.36413574 C-82.32840252 167.10401439 -82.88369687 170.53820436 -85.6875 174.53125 C-90.67564096 178.20867774 -94.61857067 179.12532196 -100.81640625 179.02734375 C-101.9454966 179.0295266 -101.9454966 179.0295266 -103.09739685 179.03175354 C-104.67817075 179.03010367 -106.25896226 179.01864524 -107.83959961 178.99780273 C-110.24728113 178.96878277 -112.65276446 178.97722464 -115.06054688 178.99023438 C-116.60417727 178.98399742 -118.14780078 178.97560681 -119.69140625 178.96484375 C-120.40406143 178.96777939 -121.11671661 178.97071503 -121.85096741 178.97373962 C-126.51839474 178.88637904 -129.71766504 177.97662143 -133.6875 175.53125 C-138.27662009 170.5700391 -138.85705067 166.62417985 -138.92578125 160.08203125 C-138.933853 159.35058395 -138.94192474 158.61913666 -138.95024109 157.86552429 C-138.96406363 156.31637935 -138.97479397 154.76720419 -138.98266602 153.21801758 C-138.99415732 151.64403269 -139.01456404 150.0700859 -139.04418945 148.49633789 C-139.35110926 132.18500754 -139.35110926 132.18500754 -134.6875 125.53125 C-129.3242131 121.13060434 -122.26368307 122.2678124 -115.6875 122.53125 C-115.55214844 121.850625 -115.41679687 121.17 -115.27734375 120.46875 C-113.23013851 111.25019708 -109.7270248 103.01606557 -105.6875 94.53125 C-105.23632812 93.57347656 -104.78515625 92.61570312 -104.3203125 91.62890625 C-92.78739953 68.93841179 -73.5546348 51.0267556 -51.6875 38.53125 C-70.4975 38.53125 -89.3075 38.53125 -108.6875 38.53125 C-110.0075 40.84125 -111.3275 43.15125 -112.6875 45.53125 C-117.59370526 51.30887371 -123.72544981 53.88919558 -131.1328125 54.84765625 C-139.26599342 55.24284216 -146.48131696 52.89098439 -152.5625 47.40625 C-158.04723439 41.32506696 -160.39909216 34.10974342 -160.00390625 25.9765625 C-159.02852576 18.43843674 -156.39355432 12.6401591 -150.6875 7.53125 C-143.1366898 2.15415789 -135.7342125 1.807513 -126.6875 2.53125 C-119.96102272 4.04419626 -115.84731055 7.90584357 -111.31640625 12.921875 C-109.6875 15.53125 -109.6875 15.53125 -107.6875 23.53125 C-77.9875 23.53125 -48.2875 23.53125 -17.6875 23.53125 C-17.6875 19.24125 -17.6875 14.95125 -17.6875 10.53125 C-14.91887821 1.76394767 -8.33517131 -0.08636815 0 0 Z M-3.6875 14.53125 C-3.6875 23.77125 -3.6875 33.01125 -3.6875 42.53125 C5.5525 42.53125 14.7925 42.53125 24.3125 42.53125 C24.3125 33.29125 24.3125 24.05125 24.3125 14.53125 C15.0725 14.53125 5.8325 14.53125 -3.6875 14.53125 Z M-142.6875 19.53125 C-145.30275329 23.58940166 -146.38874748 26.72269587 -145.6875 31.53125 C-143.41896478 35.81626096 -141.28264904 38.79530481 -136.6875 40.53125 C-131.71349143 40.83023412 -128.59620275 40.26957098 -124.6875 37.09375 C-121.47766731 32.98115187 -121.13500641 29.6615476 -121.6875 24.53125 C-123.30674923 20.88793923 -125.09601039 18.32699481 -128.6875 16.53125 C-133.96340639 15.80865869 -138.54237043 15.87378273 -142.6875 19.53125 Z M143.3125 21.53125 C141.54577201 25.06470599 141.67221999 28.68329268 142.3125 32.53125 C144.16232445 36.35092567 146.47522686 38.86642567 150.50390625 40.32421875 C154.65108539 41.03295833 156.8461087 40.75580877 160.6875 38.90625 C165.06224136 34.95479389 165.06224136 34.95479389 166.44140625 29.38671875 C166.20330949 25.03604158 165.68347908 22.98783963 162.875 19.53125 C158.97888549 16.49038014 156.4879763 16.14060177 151.640625 16.171875 C147.72245764 16.77669278 146.00891184 18.70001757 143.3125 21.53125 Z M-124.6875 136.53125 C-124.6875 145.77125 -124.6875 155.01125 -124.6875 164.53125 C-115.4475 164.53125 -106.2075 164.53125 -96.6875 164.53125 C-96.6875 155.29125 -96.6875 146.05125 -96.6875 136.53125 C-105.9275 136.53125 -115.1675 136.53125 -124.6875 136.53125 Z M117.3125 136.53125 C117.26220475 147.52563818 117.26220475 147.52563818 117.8125 158.40625 C118.06 161.438125 118.06 161.438125 118.3125 164.53125 C127.5525 164.53125 136.7925 164.53125 146.3125 164.53125 C146.333125 162.324375 146.35375 160.1175 146.375 157.84375 C146.38660156 156.60238281 146.39820313 155.36101562 146.41015625 154.08203125 C146.28439785 148.22168963 145.76207116 142.37567511 145.3125 136.53125 C136.0725 136.53125 126.8325 136.53125 117.3125 136.53125 Z " fill="#000000" transform="translate(271.6875,154.46875)"/>
<path d="M0 0 C5.00586897 2.92951264 7.70265724 7.21737637 9.25390625 12.73828125 C10.37725595 19.58480202 8.4975627 24.59429926 4.8125 30.3125 C0.44071937 34.68428063 -3.30096906 35.7021006 -9.375 35.875 C-15.07926583 35.69894241 -18.87152097 35.00347903 -23.02734375 30.84765625 C-27.79900549 25.53707742 -28.78856285 21.47728758 -28.72265625 14.359375 C-28.02053585 8.58463192 -24.90204692 4.91797214 -20.75 1.0625 C-14.79101438 -2.85788528 -6.47477547 -2.79956959 0 0 Z M-13.1875 13.6875 C-14.65008617 15.50808993 -14.65008617 15.50808993 -14.125 18.125 C-13.59754355 20.4312407 -13.59754355 20.4312407 -12.375 21.5 C-9.96017587 22.00059916 -9.96017587 22.00059916 -7.375 21.5 C-5.5125562 19.09141286 -5.5125562 19.09141286 -4.375 16.5 C-5.60090192 14.42022703 -5.60090192 14.42022703 -7.375 12.5 C-11.17850374 12.13464916 -11.17850374 12.13464916 -13.1875 13.6875 Z " fill="#000000" transform="translate(371.375,42.5)"/>
<path d="M0 0 C5.83018035 1.92956147 9.33470873 6.00247571 12.25 11.25 C14.01816534 17.7332729 13.57766909 23.3228213 10.27734375 29.20703125 C7.58124289 32.99146641 4.44924858 35.51691714 0 37 C-6.87369472 37.7128276 -12.68144934 37.77164259 -18.37890625 33.54296875 C-22.8977345 29.24191535 -24.66602552 24.44921994 -25.09765625 18.26953125 C-24.86957132 12.96883753 -23.01110689 9.19736343 -19.625 5.1875 C-13.19241931 -0.17298391 -8.25743515 -0.9856355 0 0 Z M-8 14 C-9.73647948 15.67488528 -9.73647948 15.67488528 -11 18 C-10.29042763 20.73398135 -10.29042763 20.73398135 -9 23 C-6.08347826 23.16681109 -6.08347826 23.16681109 -3 23 C-2.34 22.34 -1.68 21.68 -1 21 C-1.32198966 17.90073181 -1.32198966 17.90073181 -2 15 C-4.97 14.505 -4.97 14.505 -8 14 Z " fill="#000000" transform="translate(412,41)"/>
<path d="M0 0 C4.00521387 2.88747977 7.46370991 6.48991981 9.6875 10.9375 C10.39239793 18.04689916 10.69512697 24.47736826 6.21484375 30.34765625 C1.48101512 35.27519653 -2.18761784 36.19404581 -8.875 36.4375 C-15.10069902 36.22355845 -18.39643761 34.9973682 -22.73828125 30.44140625 C-27.2870221 25.30325109 -27.61515808 21.26319493 -27.51953125 14.65625 C-27.10077231 9.15707595 -24.78028231 6.18174355 -20.8125 2.625 C-14.92635678 -2.29302756 -7.11508205 -2.28219613 0 0 Z M-13.3125 14.9375 C-13.64583333 17.4375 -13.64583333 17.4375 -13.3125 19.9375 C-11.48546773 22.1866908 -11.48546773 22.1866908 -8.8125 22.1875 C-6.13953227 22.1866908 -6.13953227 22.1866908 -4.3125 19.9375 C-3.97916667 17.4375 -3.97916667 17.4375 -4.3125 14.9375 C-6.13953227 12.6883092 -6.13953227 12.6883092 -8.8125 12.6875 C-11.48546773 12.6883092 -11.48546773 12.6883092 -13.3125 14.9375 Z " fill="#000000" transform="translate(459.3125,42.0625)"/>
</svg>
