<svg width="81" height="81" viewBox="0 0 81 81" fill="none" xmlns="http://www.w3.org/2000/svg">
<g clip-path="url(#clip0_1_42)">
<path d="M15.1875 3.37504H33.8006C34.9279 3.37504 36.0383 3.47629 37.125 3.67204V21.9375C37.125 26.5883 40.9117 30.375 45.5625 30.375H63.8246C63.936 30.9758 64.017 31.5867 64.0643 32.2009C64.1385 33.129 64.989 33.8175 65.8834 33.7467C66.8115 33.6724 67.5034 32.8557 67.4291 31.9275C67.0073 26.7435 64.7528 21.8667 61.074 18.1913L49.3121 6.42942C45.1676 2.28492 39.6596 0.00341922 33.8006 0.00341922H15.1875C6.81413 4.42218e-05 0 6.81417 0 15.1875V65.8125C0 74.1859 6.81413 81 15.1875 81H28.6875C29.619 81 30.375 80.244 30.375 79.3125C30.375 78.381 29.619 77.625 28.6875 77.625H15.1875C8.67375 77.625 3.375 72.3263 3.375 65.8125V15.1875C3.375 8.67379 8.67375 3.37504 15.1875 3.37504ZM58.6879 20.574C60.5272 22.4134 61.9447 24.6072 62.8729 27H45.5625C42.7714 27 40.5 24.7287 40.5 21.9375V4.61704C42.8827 5.53842 45.0664 6.95254 46.926 8.81217L58.6879 20.574ZM78.5261 39.5955C75.3435 36.4095 69.7781 36.4095 66.5955 39.5955L40.5844 65.6067C38.3535 67.8375 37.125 70.8042 37.125 73.9598V79.3125C37.125 80.244 37.881 81 38.8125 81H44.1653C47.3209 81 50.2875 79.7715 52.5184 77.5407L78.5295 51.5295C80.1225 49.9365 81 47.817 81 45.5625C81 43.308 80.1191 41.1885 78.5261 39.5955ZM76.14 49.14L50.1289 75.1512C48.5359 76.7442 46.4164 77.6217 44.1619 77.6217H40.4966V73.9564C40.4966 71.7019 41.3741 69.5858 42.9671 67.9894L68.9782 41.9783C70.8885 40.068 74.2264 40.068 76.1366 41.9783C77.0918 42.9334 77.6182 44.2058 77.6182 45.5592C77.6182 46.9125 77.0951 48.1815 76.14 49.14Z" fill="#9E9E9E"/>
</g>
<defs>
<clipPath id="clip0_1_42">
<rect width="81" height="81" fill="white"/>
</clipPath>
</defs>
</svg>
