<?xml version="1.0" encoding="UTF-8"?>
<svg version="1.1" xmlns="http://www.w3.org/2000/svg" width="512" height="512">
<path d="M0 0 C0.80332764 -0.03456299 1.60665527 -0.06912598 2.43432617 -0.10473633 C6.50643657 -0.13374551 8.36588687 0.1366725 11.828125 2.46875 C14.31293007 6.18617491 14.53077522 9.04909903 14.375 13.375 C14.35767822 14.19218506 14.34035645 15.00937012 14.32250977 15.85131836 C11.00791431 108.16238018 -29.83605666 202.16482529 -98.1875 269.4375 C-101.72121057 272.69238316 -105.18755429 275.77086953 -109.1875 278.4375 C-108.56212697 282.57106317 -107.15861471 285.82434733 -105.3125 289.5625 C-96.64764399 307.93116357 -95.75749743 327.84104403 -102.44140625 347.0390625 C-113.16660385 373.86666849 -137.46638199 392.31775844 -163.21875 403.734375 C-173.92528918 408.25747506 -184.88213091 411.76209628 -196.1875 414.4375 C-197.73244141 414.80681641 -197.73244141 414.80681641 -199.30859375 415.18359375 C-205.53345095 416.43547211 -211.79211753 416.71869907 -218.125 416.875 C-218.94282959 416.90956299 -219.76065918 416.94412598 -220.60327148 416.97973633 C-224.98600754 417.01009333 -226.64943249 416.86781407 -230.19140625 414.03515625 C-233.10738237 410.24039281 -233.6491697 408.23886488 -233.1875 403.4375 C-231.50647504 400.3556209 -229.57883345 397.9007277 -227.31640625 395.22265625 C-222.36782803 389.30120065 -218.89621581 383.67100244 -216.1875 376.4375 C-215.8678125 375.62152344 -215.548125 374.80554688 -215.21875 373.96484375 C-213.16496229 367.81298889 -212.8827407 361.80592628 -212.8125 355.375 C-212.79856201 354.52873047 -212.78462402 353.68246094 -212.77026367 352.81054688 C-212.75411317 350.13759633 -212.75411317 350.13759633 -213.1875 346.4375 C-214.1775 345.7775 -215.1675 345.1175 -216.1875 344.4375 C-218.81285468 344.99975841 -218.81285468 344.99975841 -221.68359375 346.21875 C-222.78968994 346.64623535 -223.89578613 347.0737207 -225.03540039 347.51416016 C-226.21996826 347.9838623 -227.40453613 348.45356445 -228.625 348.9375 C-231.08964855 349.87633598 -233.55581005 350.81120938 -236.0234375 351.7421875 C-237.24256836 352.20334961 -238.46169922 352.66451172 -239.71777344 353.13964844 C-251.02210542 357.36803493 -260.84330947 360.89530374 -273 360.0625 C-275.94564088 359.88308284 -278.21439165 360.00256252 -281.1875 360.4375 C-284.78104248 363.88448691 -286.23979533 367.9230941 -288.1875 372.4375 C-290.62893717 375.97129153 -293.36139547 379.20610141 -296.1875 382.4375 C-296.79078125 383.13617188 -297.3940625 383.83484375 -298.015625 384.5546875 C-318.19082033 406.34050767 -357.51241302 414.65682362 -385.9765625 416.7109375 C-387.24242187 416.74445313 -388.50828125 416.77796875 -389.8125 416.8125 C-391.08351563 416.86148437 -392.35453125 416.91046875 -393.6640625 416.9609375 C-397.1875 416.4375 -397.1875 416.4375 -400.109375 414.29296875 C-405.06297447 407.48642511 -402.43262528 397.71868298 -401.23046875 389.859375 C-395.96627499 357.89366832 -387.87133005 323.6401545 -360.125 303.625 C-355.63012971 300.61892193 -350.97535946 297.94707851 -346.1875 295.4375 C-346.29191406 294.47457031 -346.39632812 293.51164062 -346.50390625 292.51953125 C-347.8933145 272.92005704 -339.78617838 253.33763899 -332.04467773 235.62695312 C-331.09649307 233.47267939 -331.09649307 233.47267939 -330.1875 230.4375 C-330.8475 229.4475 -331.5075 228.4575 -332.1875 227.4375 C-335.19420245 227.09970246 -337.92990869 226.96342119 -340.9375 227 C-341.79279297 227.00757324 -342.64808594 227.01514648 -343.52929688 227.02294922 C-359.87809186 227.44175717 -372.70451376 234.07402398 -384.97265625 244.58203125 C-387.53046206 246.7248139 -388.62121474 247.3731494 -391.9375 247.75 C-395.99651885 247.35970973 -398.02051684 245.94162622 -401.1875 243.4375 C-408.11450137 229.58349725 -399.34992394 205.39255746 -394.9375 191.75 C-391.81523158 182.5246949 -387.9156539 173.94023054 -383.1875 165.4375 C-382.84493164 164.80650391 -382.50236328 164.17550781 -382.14941406 163.52539062 C-369.78240713 140.91209371 -351.27637654 122.22261621 -326.1875 114.4375 C-307.17046738 109.24856681 -287.24838869 113.13135195 -270 122.09375 C-267.2558516 123.65305036 -267.2558516 123.65305036 -264.1875 123.4375 C-262.58464921 122.01489329 -262.58464921 122.01489329 -261.0625 120.0625 C-260.134375 118.95841797 -260.134375 118.95841797 -259.1875 117.83203125 C-258.5275 117.04183594 -257.8675 116.25164062 -257.1875 115.4375 C-247.03954237 103.76338468 -236.35084472 93.00599785 -224.1875 83.4375 C-223.02163181 82.48397438 -221.8576746 81.52810897 -220.6953125 80.5703125 C-165.90469395 35.63479599 -95.34731326 12.81040041 -26.1875 2.4375 C-25.34348633 2.30472656 -24.49947266 2.17195312 -23.62988281 2.03515625 C-15.77189382 0.8022589 -7.94500363 0.19646101 0 0 Z M-33.75 24.9375 C-34.53097046 25.0676651 -35.31194092 25.1978302 -36.11657715 25.3319397 C-47.84225088 27.30245714 -59.40919379 29.71609465 -70.9375 32.625 C-71.93984177 32.87685059 -71.93984177 32.87685059 -72.96243286 33.13378906 C-79.86402707 34.88252802 -86.58693008 36.75912804 -93.1875 39.4375 C-89.28266632 44.11049695 -85.22603642 48.54078418 -80.90673828 52.83178711 C-80.01297234 53.72577209 -80.01297234 53.72577209 -79.10115051 54.63781738 C-77.15573528 56.58254295 -75.20681586 58.5237148 -73.2578125 60.46484375 C-71.89853383 61.82225488 -70.5394776 63.17988879 -69.18063354 64.53773499 C-65.62204553 68.09252433 -62.06046355 71.64429893 -58.49822998 75.19543457 C-54.8563668 78.82702638 -51.21737037 82.46148832 -47.578125 86.09570312 C-40.45070489 93.21243271 -33.32011559 100.32597777 -26.1875 107.4375 C-23.93824695 106.59916414 -23.93824695 106.59916414 -23.32128906 104.06201172 C-23.03479492 103.00771973 -22.74830078 101.95342773 -22.453125 100.8671875 C-21.96706787 99.07958008 -21.96706787 99.07958008 -21.47119141 97.25585938 C-21.12557065 95.94168377 -20.78103486 94.62722242 -20.4375 93.3125 C-20.26208679 92.65000244 -20.08667358 91.98750488 -19.90594482 91.30493164 C-10.7636525 57.26437212 -10.7636525 57.26437212 -8.1875 22.4375 C-16.87915277 22.04554272 -25.21543619 23.49470533 -33.75 24.9375 Z M-123.16796875 49.34375 C-124.65502319 49.95887451 -124.65502319 49.95887451 -126.17211914 50.58642578 C-127.75754517 51.25520752 -127.75754517 51.25520752 -129.375 51.9375 C-131.0000647 52.61981689 -131.0000647 52.61981689 -132.65795898 53.31591797 C-140.72989113 56.74131866 -148.61978075 60.40175019 -156.37695312 64.48730469 C-158.18637437 65.43690926 -160.00591118 66.3642841 -161.828125 67.2890625 C-183.21258684 78.26071705 -202.58956465 92.09185219 -220.1875 108.4375 C-221.51721825 109.5875266 -222.85045928 110.73349488 -224.1875 111.875 C-231.77317819 118.49522824 -238.68334376 125.76420824 -245.1875 133.4375 C-245.99703125 134.36949219 -246.8065625 135.30148438 -247.640625 136.26171875 C-266.36941288 157.9279548 -281.76215654 181.8400809 -295.5625 206.875 C-296.07490234 207.79893555 -296.58730469 208.72287109 -297.11523438 209.67480469 C-297.60056641 210.56458008 -298.08589844 211.45435547 -298.5859375 212.37109375 C-299.01567871 213.15540771 -299.44541992 213.93972168 -299.88818359 214.74780273 C-301.55877042 218.20606187 -302.83896579 221.84140878 -304.1875 225.4375 C-273.4975 256.1275 -242.8075 286.8175 -211.1875 318.4375 C-202.38603791 314.66544482 -194.20622598 311.0542156 -186 306.3125 C-185.01805664 305.74974365 -184.03611328 305.1869873 -183.02441406 304.60717773 C-158.67048169 290.54638409 -136.3968236 274.53959569 -115.58984375 255.62109375 C-113.94418319 254.12528196 -112.29007661 252.63872468 -110.62890625 251.16015625 C-102.59404731 244.0058298 -95.25702042 236.74125116 -88.52734375 228.33203125 C-86.98858023 226.42848572 -85.41868143 224.54962222 -83.81640625 222.69921875 C-63.07226603 198.70239734 -48.57616969 169.43412355 -36.1875 140.4375 C-35.86990723 139.70144531 -35.55231445 138.96539062 -35.22509766 138.20703125 C-33.22681387 133.36061364 -33.22681387 133.36061364 -34.1875 128.4375 C-35.5657275 126.61067073 -35.5657275 126.61067073 -37.36264038 124.88140869 C-38.04122604 124.19436356 -38.71981171 123.50731842 -39.41896057 122.79945374 C-40.54261269 121.68491066 -40.54261269 121.68491066 -41.68896484 120.54785156 C-42.86701439 119.36191658 -42.86701439 119.36191658 -44.06886292 118.15202332 C-46.67121427 115.53645006 -49.28440828 112.93202358 -51.8984375 110.328125 C-53.70630135 108.51824126 -55.51371959 106.70791231 -57.32070923 104.89715576 C-61.1106371 101.10280171 -64.90580288 97.31379506 -68.70507812 93.52880859 C-73.0999727 89.15025214 -77.48393928 84.7609767 -81.86240804 80.36599946 C-86.0731579 76.14000916 -90.29229291 71.9224691 -94.51506424 67.70848846 C-96.31228778 65.91327142 -98.10727101 64.11580876 -99.90000534 62.3161087 C-102.40191554 59.80661355 -104.91318189 57.30688104 -107.42724609 54.80957031 C-108.17229904 54.05844467 -108.91735199 53.30731903 -109.6849823 52.53343201 C-110.36920761 51.85766617 -111.05343292 51.18190033 -111.75839233 50.48565674 C-112.35164999 49.89353016 -112.94490765 49.30140358 -113.55614281 48.69133377 C-116.81447058 46.1870377 -119.75892998 47.93076669 -123.16796875 49.34375 Z M-352.375 157.1875 C-365.22174381 173.24592976 -376.37183227 193.74561623 -379.1875 214.4375 C-378.14851563 214.02757812 -377.10953125 213.61765625 -376.0390625 213.1953125 C-374.63037179 212.65061876 -373.22150815 212.10637209 -371.8125 211.5625 C-371.13316406 211.29308594 -370.45382812 211.02367187 -369.75390625 210.74609375 C-360.08108235 207.03968459 -350.94341372 206.11277401 -340.625 206.1875 C-339.0172168 206.17589844 -339.0172168 206.17589844 -337.37695312 206.1640625 C-331.00131055 206.1796604 -325.35350397 206.80703515 -319.1875 208.4375 C-318.87224365 207.80585938 -318.5569873 207.17421875 -318.23217773 206.5234375 C-307.98031446 186.10430031 -297.03022382 165.99186961 -282.60327148 148.16772461 C-281.39303782 146.6452803 -280.27907552 145.0471475 -279.1875 143.4375 C-279.86964267 140.26452058 -279.86964267 140.26452058 -282.55859375 139.12109375 C-309.61817249 128.12490825 -333.25852388 135.03109495 -352.375 157.1875 Z M-313.1875 246.4375 C-316.79462979 254.16706383 -319.47485641 262.11428488 -322 270.25 C-322.31396729 271.24008057 -322.62793457 272.23016113 -322.95141602 273.25024414 C-325.4254599 280.75318327 -325.4254599 280.75318327 -325.1875 288.4375 C-323.44556263 290.72210342 -323.44556263 290.72210342 -321.22143555 293.06176758 C-320.40296646 293.94753983 -319.58449738 294.83331207 -318.7412262 295.7459259 C-314.84758403 299.84974346 -310.88790466 303.88007728 -306.8828125 307.875 C-306.0370163 308.72175293 -305.19122009 309.56850586 -304.3197937 310.44091797 C-302.55133706 312.2100492 -300.7816408 313.97794209 -299.01074219 315.74462891 C-296.29505337 318.4549119 -293.58480763 321.17055695 -290.875 323.88671875 C-289.14875845 325.6123003 -287.42220717 327.33757207 -285.6953125 329.0625 C-284.88595245 329.87388428 -284.07659241 330.68526855 -283.2427063 331.52124023 C-282.49117279 332.26962158 -281.73963928 333.01800293 -280.96533203 333.7890625 C-280.3063089 334.44729004 -279.64728577 335.10551758 -278.96829224 335.78369141 C-275.86798695 338.66292202 -273.69475137 339.86964335 -269.44433594 339.74023438 C-264.25256161 339.04380424 -259.28787593 337.27287403 -254.3125 335.6875 C-253.17941406 335.33945312 -252.04632813 334.99140625 -250.87890625 334.6328125 C-244.4366974 332.61728945 -238.2859138 330.32744389 -232.1875 327.4375 C-236.46159398 322.33365128 -240.93279203 317.54854916 -245.64575195 312.84985352 C-246.36678604 312.12706711 -247.08782013 311.4042807 -247.83070374 310.65959167 C-250.19323559 308.29269001 -252.55936847 305.92942731 -254.92578125 303.56640625 C-256.57405472 301.91745878 -258.22217975 300.26836292 -259.87016296 298.61912537 C-263.31229132 295.17552703 -266.75621151 291.73373356 -270.20141602 288.29321289 C-274.6280852 283.87226754 -279.05021405 279.44681202 -283.47103596 275.02002048 C-286.86713151 271.62032334 -290.26559035 268.22299673 -293.66478539 264.82639885 C-295.29749244 263.19436079 -296.92945172 261.56157431 -298.56066322 259.92804146 C-300.83011316 257.65606872 -303.10271463 255.3872976 -305.3762207 253.11938477 C-306.05515381 252.43842743 -306.73408691 251.75747009 -307.43359375 251.05587769 C-309.92981158 247.94257938 -309.92981158 247.94257938 -313.1875 246.4375 Z M-134.625 297.6875 C-152.63086566 311.87657177 -173.48440899 323.66461232 -194.1875 333.4375 C-193.86652344 334.50355469 -193.54554688 335.56960938 -193.21484375 336.66796875 C-189.2653898 352.60221389 -190.64711294 374.06492067 -198.4140625 388.7578125 C-199.50540097 390.6238471 -199.50540097 390.6238471 -198.1875 393.4375 C-177.95891232 387.43006134 -159.48415123 380.20536052 -143.1875 366.4375 C-142.45273437 365.85871094 -141.71796875 365.27992188 -140.9609375 364.68359375 C-129.77828296 355.48000007 -121.09529869 341.93677006 -119.1875 327.4375 C-118.20399125 315.16255427 -121.11383625 304.0724132 -127.1875 293.4375 C-130.43660434 293.4375 -132.14429971 295.67765875 -134.625 297.6875 Z M-357.18359375 329.30078125 C-371.40093437 344.08808208 -380.1875 374.43395854 -380.1875 394.4375 C-356.48536256 392.05496279 -326.1580777 385.57133222 -310.1875 366.4375 C-305.30589329 360.18228101 -301.50952227 353.63266344 -298.1875 346.4375 C-302.14702624 341.69707786 -306.26997977 337.20629523 -310.64453125 332.84765625 C-311.2329631 332.25826767 -311.82139496 331.66887909 -312.42765808 331.06163025 C-313.65749481 329.83111893 -314.88857144 328.60184566 -316.12084961 327.3737793 C-318.0159932 325.48405252 -319.90566277 323.58896729 -321.79492188 321.69335938 C-322.99447065 320.49447038 -324.19432903 319.29589108 -325.39453125 318.09765625 C-325.96113968 317.52902359 -326.52774811 316.96039093 -327.11152649 316.37452698 C-336.09719112 307.44321515 -349.86728178 322.4712689 -357.18359375 329.30078125 Z " fill="#000000" transform="translate(498.1875,-0.43749999999999994)"/>
<path d="M0 0 C10.36043051 8.4077637 17.20329241 19.72702499 19 33 C20.16188183 48.51357715 17.06113258 62.22172439 6.8125 74.1875 C-2.65498525 84.13929555 -14.04366435 90.23526248 -27.91015625 91.203125 C-44.08981219 91.44371468 -56.97940709 86.59499138 -68.77734375 75.4140625 C-78.37325345 64.99179151 -82.35613688 51.38608585 -82.21484375 37.4765625 C-81.25737729 21.98301435 -74.10320791 10.3560203 -63 0 C-44.30947378 -14.17805938 -18.78848765 -13.34971491 0 0 Z M-55 22 C-59.58064421 29.39511963 -61.92883401 36.29549838 -61 45 C-59.20153369 52.62723063 -56.07359466 58.93675757 -50 64 C-41.78184524 69.07778129 -33.83234639 71.61103622 -24.25 69.3515625 C-14.58651265 66.21092911 -8.60926457 61.08141001 -3.91015625 52.11328125 C-0.8618747 45.03551164 -0.95751059 37.01518438 -3.5625 29.8125 C-7.45090055 21.24714214 -13.39064139 15.7079123 -22 12 C-34.22180712 8.17915449 -46.82192489 12.38621837 -55 22 Z " fill="#000000" transform="translate(392,111)"/>
<path d="M0 0 C3.49890004 2.11391877 4.70578686 3.11736059 6 7 C6.50633602 10.22789214 6.82749915 12.76185188 4.93916321 15.58728027 C-5.32610049 26.86434132 -16.14843848 37.63566456 -26.87279224 48.47304535 C-30.74041278 52.38179381 -34.5975463 56.29978506 -38.43188477 60.24121094 C-42.15914744 64.07215777 -45.91038192 67.87801969 -49.67978477 71.66749573 C-51.10657473 73.11020119 -52.52470791 74.56152322 -53.93372536 76.02159119 C-55.90541687 78.06132557 -57.90642863 80.06727838 -59.91723633 82.06835938 C-60.487435 82.67293976 -61.05763367 83.27752014 -61.64511108 83.90042114 C-65.07433809 87.23644702 -67.40865314 88.38214059 -72.25126648 88.49963379 C-75.89523274 88.36949347 -76.91283867 88.05870049 -80.0625 85.9375 C-82.39595144 82.39968652 -83 80.2362654 -83 76 C-80.88099968 70.58010335 -77.52830161 67.11149714 -73.46484375 63.10839844 C-72.80598175 62.44749207 -72.14711975 61.78658569 -71.46829224 61.10565186 C-69.29854105 58.93290364 -67.11826698 56.77106201 -64.9375 54.609375 C-63.42381472 53.0987489 -61.91072087 51.58752996 -60.39819336 50.07574463 C-57.23191715 46.9140645 -54.06080201 43.75735106 -50.88574219 40.60449219 C-46.81335246 36.56043248 -42.74973426 32.50770155 -38.68925476 28.45168686 C-35.56713149 25.33371685 -32.44218702 22.21858835 -29.31619263 19.10449982 C-27.81659563 17.6106038 -26.31746851 16.11623595 -24.81881714 14.6213913 C-22.72686309 12.53630073 -20.63156467 10.45463421 -18.53515625 8.37402344 C-17.91480499 7.75479004 -17.29445374 7.13555664 -16.65530396 6.49755859 C-16.08335297 5.93131775 -15.51140198 5.3650769 -14.92211914 4.78167725 C-14.42732559 4.28985836 -13.93253204 3.79803947 -13.42274475 3.29131699 C-9.16614898 -0.57207061 -5.49528211 -0.8001902 0 0 Z " fill="#000000" transform="translate(167,424)"/>
<path d="M0 0 C3.49890004 2.11391877 4.70578686 3.11736059 6 7 C6.50633602 10.22789214 6.82749915 12.76185188 4.93916321 15.58728027 C-5.32610049 26.86434132 -16.14843848 37.63566456 -26.87279224 48.47304535 C-30.74041278 52.38179381 -34.5975463 56.29978506 -38.43188477 60.24121094 C-42.15914744 64.07215777 -45.91038192 67.87801969 -49.67978477 71.66749573 C-51.10657473 73.11020119 -52.52470791 74.56152322 -53.93372536 76.02159119 C-55.90541687 78.06132557 -57.90642863 80.06727838 -59.91723633 82.06835938 C-60.487435 82.67293976 -61.05763367 83.27752014 -61.64511108 83.90042114 C-65.07433809 87.23644702 -67.40865314 88.38214059 -72.25126648 88.49963379 C-75.89523274 88.36949347 -76.91283867 88.05870049 -80.0625 85.9375 C-82.39595144 82.39968652 -83 80.2362654 -83 76 C-80.88099968 70.58010335 -77.52830161 67.11149714 -73.46484375 63.10839844 C-72.80598175 62.44749207 -72.14711975 61.78658569 -71.46829224 61.10565186 C-69.29854105 58.93290364 -67.11826698 56.77106201 -64.9375 54.609375 C-63.42381472 53.0987489 -61.91072087 51.58752996 -60.39819336 50.07574463 C-57.23191715 46.9140645 -54.06080201 43.75735106 -50.88574219 40.60449219 C-46.81335246 36.56043248 -42.74973426 32.50770155 -38.68925476 28.45168686 C-35.56713149 25.33371685 -32.44218702 22.21858835 -29.31619263 19.10449982 C-27.81659563 17.6106038 -26.31746851 16.11623595 -24.81881714 14.6213913 C-22.72686309 12.53630073 -20.63156467 10.45463421 -18.53515625 8.37402344 C-17.91480499 7.75479004 -17.29445374 7.13555664 -16.65530396 6.49755859 C-16.08335297 5.93131775 -15.51140198 5.3650769 -14.92211914 4.78167725 C-14.42732559 4.28985836 -13.93253204 3.79803947 -13.42274475 3.29131699 C-9.16614898 -0.57207061 -5.49528211 -0.8001902 0 0 Z " fill="#000000" transform="translate(87,424)"/>
<path d="M0 0 C3.5386994 1.65139305 4.81070153 2.71605229 7 6 C7.85292042 9.18380217 7.716699 11.79177581 7 15 C5.46563721 17.16101074 5.46563721 17.16101074 3.34863281 19.40429688 C2.52762085 20.27828125 1.70660889 21.15226562 0.86071777 22.05273438 C-0.09096974 23.03698246 -1.04464849 24.01930794 -2 25 C-2.51139023 25.52718628 -3.02278046 26.05437256 -3.54966736 26.59753418 C-7.75524079 30.92094188 -12.0068945 35.19779057 -16.265625 39.46875 C-17.26991169 40.47727776 -17.26991169 40.47727776 -18.294487 41.50617981 C-21.82483266 45.05139505 -25.35794747 48.59382134 -28.89355469 52.13378906 C-32.53739758 55.78315665 -36.17183827 59.44174352 -39.80426407 63.1024704 C-42.6113626 65.92817339 -45.42512799 68.74716473 -48.24077606 71.56434631 C-49.58447211 72.9110649 -50.92567155 74.26027938 -52.26428986 75.61204529 C-54.13045506 77.49525453 -56.00584226 79.36878377 -57.88378906 81.24023438 C-58.70523407 82.07550156 -58.70523407 82.07550156 -59.54327393 82.92764282 C-62.49128836 85.84381142 -64.9669843 87.90201171 -69 89 C-73.18110238 88.92533746 -75.43731429 88.37113313 -78.9375 86.0625 C-81.84877705 81.73969469 -81.92772323 78.08581934 -81 73 C-79.2756636 69.92139202 -76.97001775 67.68818096 -74.42236328 65.27124023 C-73.72331879 64.56912918 -73.02427429 63.86701813 -72.30404663 63.14363098 C-69.99920109 60.84064617 -67.66093467 58.57515987 -65.3203125 56.30859375 C-63.70874155 54.71314683 -62.09930306 53.11554327 -60.49191284 51.5158844 C-56.26321462 47.31962899 -52.00491843 43.15468665 -47.7401123 38.99517822 C-43.39712621 34.74757442 -39.08534367 30.46853656 -34.76953125 26.19335938 C-28.47332049 19.96851339 -22.16969916 13.75136343 -15.83642578 7.56420898 C-15.17036316 6.91026154 -14.50430054 6.25631409 -13.8180542 5.58255005 C-13.20948578 4.98980789 -12.60091736 4.39706573 -11.97390747 3.78636169 C-11.4447983 3.26931891 -10.91568913 2.75227613 -10.37054634 2.21956539 C-7.15912114 -0.63808554 -4.15179723 -0.28147778 0 0 Z " fill="#000000" transform="translate(81,339)"/>
<path d="M0 0 C2.75569447 2.18159145 4.43588747 3.87177494 6 7 C6.61284768 12.39305958 5.17450787 14.7138931 2 19 C-0.0402955 21.30118171 -2.19316912 23.47404266 -4.375 25.640625 C-4.98134277 26.24888123 -5.58768555 26.85713745 -6.21240234 27.48382568 C-7.48745282 28.76022997 -8.76500371 30.03414092 -10.04492188 31.30566406 C-12.00105786 33.25105205 -13.94624654 35.2069308 -15.890625 37.1640625 C-17.13477559 38.40689208 -18.37954613 39.64910144 -19.625 40.890625 C-20.20427246 41.47394592 -20.78354492 42.05726685 -21.38037109 42.65826416 C-24.988236 46.22457542 -27.69334108 48.69913145 -32.875 49.375 C-36.82171864 48.90139376 -38.90995187 47.44329387 -42 45 C-43.79845048 41.40309904 -43.66914789 37.91126999 -43 34 C-41.87036133 32.22875977 -41.87036133 32.22875977 -40.26953125 30.50390625 C-39.63418457 29.81683594 -38.99883789 29.12976563 -38.34423828 28.421875 C-33.90154672 23.83204994 -29.42599648 19.2786789 -24.90063477 14.77026367 C-23.17019863 13.04525287 -21.4452551 11.31487572 -19.72070312 9.58398438 C-18.62011271 8.48405367 -17.51921272 7.38443262 -16.41796875 6.28515625 C-15.90340622 5.76856949 -15.38884369 5.25198273 -14.85868835 4.71974182 C-10.12321827 0.01551447 -6.63493059 -1.05425495 0 0 Z " fill="#000000" transform="translate(238,410)"/>
<path d="M0 0 C5.57894737 3.15789474 5.57894737 3.15789474 7 6 C7.68526779 9.75339859 7.98242836 13.45958121 5.87036133 16.77124023 C5.3420874 17.34044189 4.81381348 17.90964355 4.26953125 18.49609375 C3.63418457 19.18316406 2.99883789 19.87023437 2.34423828 20.578125 C-2.09845328 25.16795006 -6.57400352 29.7213211 -11.09936523 34.22973633 C-12.82980137 35.95474713 -14.5547449 37.68512428 -16.27929688 39.41601562 C-17.37988729 40.51594633 -18.48078728 41.61556738 -19.58203125 42.71484375 C-20.09659378 43.23143051 -20.61115631 43.74801727 -21.14131165 44.28025818 C-24.58984451 47.706039 -26.4610867 49.16300547 -31.3125 49.375 C-35.14506165 49.35031361 -35.82418398 49.13918768 -39 46.625 C-41.90664016 42.81003479 -42.4628138 40.81326348 -42 36 C-39.15821172 31.11246654 -35.60236465 27.30894235 -31.625 23.359375 C-31.01865723 22.75111877 -30.41231445 22.14286255 -29.78759766 21.51617432 C-28.51254718 20.23977003 -27.23499629 18.96585908 -25.95507812 17.69433594 C-23.99894214 15.74894795 -22.05375346 13.7930692 -20.109375 11.8359375 C-18.86522441 10.59310792 -17.62045387 9.35089856 -16.375 8.109375 C-15.79572754 7.52605408 -15.21645508 6.94273315 -14.61962891 6.34173584 C-10.03743015 1.81231262 -6.76240509 -0.81148861 0 0 Z " fill="#000000" transform="translate(95,268)"/>
<path d="M0 0 C3.36337088 2.01802253 4.56537386 3.42587329 5.609375 7.20703125 C6.06357083 11.44841876 5.63817835 14.05745967 3.22265625 17.625 C0.91682661 20.21068247 -1.49332993 22.60963942 -4 25 C-4.63035156 25.68578125 -5.26070313 26.3715625 -5.91015625 27.078125 C-9.61148262 31.09140827 -12.71978698 33.46393803 -18 35 C-22.01900433 35 -23.59712833 34.30439193 -26.8125 31.875 C-29.49798945 28.34549958 -30.07639225 26.43075047 -30 22 C-27.30521528 16.41888949 -23.87278099 12.46313083 -19.4375 8.1875 C-18.86064453 7.61580078 -18.28378906 7.04410156 -17.68945312 6.45507812 C-12.02173183 0.89195146 -8.11592388 -1.20188045 0 0 Z " fill="#000000" transform="translate(309,198)"/>
<path d="M0 0 C2.82275936 1.25455972 4.46288541 2.28384722 6.3125 4.75 C7.5031612 8.64670939 7.5031612 12.35329061 6.3125 16.25 C4.39865744 18.80179008 2.98636669 19.79274538 0 21 C-4.28801333 21.19908633 -7.80006977 20.71995814 -11.5 18.5 C-13.72819341 14.78634432 -14.46342619 11.320328 -14 7 C-10.71407199 0.76449881 -6.73179456 -0.45639285 0 0 Z " fill="#000000" transform="translate(265,240)"/>
</svg>
