<?xml version="1.0" encoding="UTF-8"?>
<svg version="1.1" xmlns="http://www.w3.org/2000/svg" width="512" height="512">
<path d="M0 0 C12.67931545 10.1209969 22.45026584 22.32897864 31 36 C31.67933594 37.07765625 32.35867188 38.1553125 33.05859375 39.265625 C54 74.15392354 54 74.15392354 54 89 C55.90458984 88.60167969 55.90458984 88.60167969 57.84765625 88.1953125 C92.24191714 81.09488675 137.53271916 74.83859552 169.0859375 94.96875 C183.33339449 105.16088548 192.32770082 117.09414194 195.53125 134.50390625 C199.9224174 167.25469646 182.08478775 198.70065053 163.07421875 223.91796875 C158.45159203 229.93094239 153.65222941 235.68036249 148.265625 241.03515625 C146.76495342 242.9593778 146.76495342 242.9593778 147.06640625 245.48828125 C148.16574991 248.44592967 149.46003625 249.89341894 151.6875 252.125 C175.05292879 277.19918829 196.96345421 313.32507789 196.24609375 348.64453125 C195.02259392 365.32685439 188.54093407 378.97823965 176 390 C153.41749038 408.29915246 121.39281859 409.35923951 93.6875 407.25 C92.57753662 407.16564697 91.46757324 407.08129395 90.32397461 406.99438477 C78.32830879 405.99268922 65.47811251 404.8260375 54 401 C53.74802856 402.01380737 53.74802856 402.01380737 53.4909668 403.0480957 C51.76805259 409.69922516 49.58057875 415.90510242 46.8125 422.1875 C46.21876587 423.54814575 46.21876587 423.54814575 45.61303711 424.9362793 C37.05675862 444.35751057 27.37440572 462.24343988 13 478 C12.27296875 478.82113281 11.5459375 479.64226562 10.796875 480.48828125 C0.50784736 491.52040534 -14.06921852 500.60289679 -29.40625 501.23828125 C-48.69592651 501.66100117 -63.52419654 496.6630007 -77.70678711 483.25073242 C-86.92774804 474.29361743 -94.17768633 464.83127168 -101 454 C-101.61746094 453.03449219 -102.23492187 452.06898438 -102.87109375 451.07421875 C-110.64605087 438.37931186 -124 416.19702162 -124 401 C-125.02480469 401.27263672 -125.02480469 401.27263672 -126.0703125 401.55078125 C-142.39443541 405.62137456 -159.20794377 407.4379228 -176 408 C-177.50820312 408.061875 -177.50820312 408.061875 -179.046875 408.125 C-204.84970632 408.69522832 -231.27437935 403.67224055 -250.54296875 385.6171875 C-261.06711723 374.65232929 -265.96356139 361.29072559 -266.375 346.1875 C-265.44754704 309.8152143 -243.50473262 274.05490152 -218.265625 248.96484375 C-216.76720697 247.04232087 -216.76720697 247.04232087 -217.05859375 244.5234375 C-218.18119767 241.51430002 -219.55916158 239.97331898 -221.8125 237.6875 C-245.51363085 212.25855295 -266.62322385 177.15886286 -266.2109375 141.49609375 C-265.24771569 125.53158407 -259.18957152 112.31612607 -247.58007812 101.38867188 C-230.97511969 86.79519172 -208.46774169 82.87511813 -187 82 C-186.06027344 81.95875 -185.12054688 81.9175 -184.15234375 81.875 C-164.76716728 81.46635333 -142.4887739 82.83707537 -124 89 C-123.83201904 88.32412842 -123.66403809 87.64825684 -123.4909668 86.9519043 C-121.76805259 80.30077484 -119.58057875 74.09489758 -116.8125 67.8125 C-116.41667725 66.90540283 -116.02085449 65.99830566 -115.61303711 65.0637207 C-107.05675862 45.64248943 -97.37440572 27.75656012 -83 12 C-82.27296875 11.17886719 -81.5459375 10.35773437 -80.796875 9.51171875 C-59.27407203 -13.56550888 -26.14180919 -18.52569155 0 0 Z M-76.2421875 31.1953125 C-87.68548628 46.54929882 -106 74.06572897 -106 94 C-105.26289795 94.22026855 -104.5257959 94.44053711 -103.76635742 94.66748047 C-89.90209837 98.83307618 -76.13873973 103.14940098 -62.5625 108.1875 C-61.4381958 108.60394775 -60.3138916 109.02039551 -59.15551758 109.44946289 C-54.53908148 111.1868758 -49.97526457 112.95070535 -45.51953125 115.0703125 C-44.88523193 115.3691333 -44.25093262 115.6679541 -43.59741211 115.97583008 C-42.04638928 116.72924684 -40.51758369 117.5279945 -38.9921875 118.33203125 C-34.4197138 119.35277929 -31.24374605 117.74128056 -27 116 C-26.04512695 115.62302979 -25.09025391 115.24605957 -24.10644531 114.85766602 C-21.95913344 114.00555014 -19.81465593 113.14626761 -17.67260742 112.28100586 C-0.10153094 105.19226124 17.73762076 99.08605944 36 94 C34.62427705 86.69808588 32.27544741 80.20406693 29.375 73.375 C28.92914551 72.31829102 28.48329102 71.26158203 28.02392578 70.17285156 C17.72988401 46.11544441 3.7146644 20.88823394 -20.6875 9 C-42.80811776 0.56490062 -62.89746157 14.21464633 -76.2421875 31.1953125 Z M-240 120 C-246.45103317 127.79371232 -248.66093115 137.689697 -248.33984375 147.65625 C-245.76835771 172.95730804 -232.15477072 196.03934626 -216.30761719 215.3984375 C-214.87865267 217.14862555 -213.47558049 218.91824456 -212.0703125 220.6875 C-211.09013453 221.8971258 -210.10840144 223.10549337 -209.125 224.3125 C-208.67253906 224.88266846 -208.22007812 225.45283691 -207.75390625 226.0402832 C-206.32514137 227.81289137 -206.32514137 227.81289137 -204 230 C-200.21555431 230.3930979 -200.21555431 230.3930979 -198.43530273 228.85766602 C-197.93973877 228.32842529 -197.4441748 227.79918457 -196.93359375 227.25390625 C-196.37115967 226.66818848 -195.80872559 226.0824707 -195.22924805 225.47900391 C-194.63797119 224.84655762 -194.04669434 224.21411133 -193.4375 223.5625 C-188.35783737 218.29798986 -183.23133654 213.53011541 -177.48828125 208.9921875 C-175.19400896 207.155329 -173.03529765 205.24094354 -170.875 203.25 C-166.53529715 199.34347983 -161.94724935 195.79544005 -157.3125 192.25 C-156.58724121 191.69473633 -155.86198242 191.13947266 -155.11474609 190.56738281 C-152.08177414 188.26497058 -149.22877975 186.12171857 -145.85620117 184.32739258 C-142.07906193 181.24956811 -141.79889026 178.41092555 -141.3125 173.80859375 C-141.20399216 172.99883087 -141.09548431 172.18906799 -140.98368835 171.35476685 C-140.75300779 169.61875261 -140.53389222 167.88116949 -140.32528687 166.1423645 C-139.77845394 161.59527351 -139.14702618 157.05998535 -138.51953125 152.5234375 C-138.39657181 151.62111893 -138.27361237 150.71880035 -138.14692688 149.78913879 C-136.90026355 140.85012689 -135.03157523 132.13658413 -132.91601562 123.36303711 C-131.52154693 117.55765874 -130.52314282 111.9515189 -130 106 C-164.48579708 98.87144799 -212.97931068 91.48884561 -240 120 Z M60 106 C60.63888381 113.33561777 62.12386861 120.2784714 63.8125 127.4375 C65.97197872 136.85508261 67.8099054 146.25817385 69.25 155.8125 C69.50414673 157.44239868 69.50414673 157.44239868 69.76342773 159.10522461 C70.43425364 163.5389699 71.06142021 167.90132691 71.1953125 172.38671875 C71.46058419 177.72098634 71.71366572 180.74987364 75.63671875 184.5625 C78.59943671 186.7855309 81.74816399 188.68736193 84.90136719 190.625 C88.72345871 193.12919026 92.18641558 196.07159967 95.6875 199 C96.40808594 199.59820557 97.12867188 200.19641113 97.87109375 200.81274414 C102.91682818 205.02770808 107.82409331 209.36477598 112.6484375 213.83203125 C114.79288047 215.80905094 116.97531568 217.72457138 119.1875 219.625 C123.32736554 223.21631192 127.17237666 227.08075802 131 231 C135.16677512 229.42152754 137.63665214 226.3758277 140.4375 223.0625 C140.95610596 222.45132324 141.47471191 221.84014648 142.0090332 221.21044922 C159.80567225 199.78417992 179.27231909 171.02559642 178.34375 142.0078125 C176.94259173 129.74767763 172.04881086 120.92375006 162.5625 113.1875 C134.1732034 92.54938488 91.92687835 99.81101427 60 106 Z M-112 111 C-115.47447681 125.33294924 -118.93975533 139.65775658 -121.5 154.1875 C-121.67176758 155.14148682 -121.84353516 156.09547363 -122.02050781 157.07836914 C-122.16842773 157.95356201 -122.31634766 158.82875488 -122.46875 159.73046875 C-122.59701172 160.48739014 -122.72527344 161.24431152 -122.85742188 162.02416992 C-123.14233978 164.21246089 -123.14233978 164.21246089 -122 167 C-121.4738208 166.6690332 -120.9476416 166.33806641 -120.40551758 165.99707031 C-99.74779405 153.03273718 -78.70501025 141.12221588 -57 130 C-61.23298232 127.17801179 -65.81190523 125.65355706 -70.5625 123.875 C-72.13475342 123.28537476 -72.13475342 123.28537476 -73.73876953 122.68383789 C-92.44436245 114.76340762 -92.44436245 114.76340762 -112 111 Z M28.25 114.5 C27.09089111 114.85658691 25.93178223 115.21317383 24.73754883 115.58056641 C11.99215867 119.55213888 -0.63681851 123.95276302 -13 129 C-9.99824712 131.3931759 -6.94271588 133.14849969 -3.51171875 134.86328125 C-2.42375 135.41363037 -1.33578125 135.96397949 -0.21484375 136.53100586 C0.94917969 137.11889893 2.11320312 137.70679199 3.3125 138.3125 C20.15478267 146.89788547 36.07405541 156.83251356 52 167 C53.1439196 163.5682412 52.83876748 161.98919627 52.21484375 158.4609375 C51.91743286 156.77049316 51.91743286 156.77049316 51.61401367 155.04589844 C51.2791394 153.22880371 51.2791394 153.22880371 50.9375 151.375 C50.60165894 149.5192334 50.60165894 149.5192334 50.2590332 147.62597656 C47.97194963 135.30379439 45.093142 123.14190387 42 111 C37.36611738 111 32.64282395 113.14668513 28.25 114.5 Z M-42.68359375 142.15625 C-43.70176682 142.65703568 -43.70176682 142.65703568 -44.74050903 143.16793823 C-46.97613751 144.27211847 -49.20737644 145.38474572 -51.4375 146.5 C-52.19964813 146.88037415 -52.96179626 147.26074829 -53.74703979 147.65264893 C-73.31118858 157.44946443 -92.26700915 168.36802265 -110.375 180.671875 C-112.79120336 182.29212224 -114.9317033 183.42167606 -117.625 184.640625 C-121.34330082 186.44715795 -123.34758457 187.81268663 -126 191 C-126.9372374 194.25390621 -127.11452228 197.48832653 -127.30078125 200.859375 C-127.3710553 201.86081543 -127.44132935 202.86225586 -127.51373291 203.89404297 C-128.28676902 216.23450183 -128.30262918 228.60093287 -128.26074219 240.9609375 C-128.25162289 243.6537357 -128.25162289 246.3462643 -128.26074219 249.0390625 C-128.30585775 262.39288306 -128.24321399 275.75129269 -127.38671875 289.08203125 C-127.34641541 290.01213013 -127.30611206 290.942229 -127.2645874 291.9005127 C-126.90288508 296.44357916 -126.38558937 299.18110978 -122.95288086 302.32885742 C-120.56878599 304.10972526 -118.15736483 305.63876852 -115.4296875 306.84375 C-111.55547792 308.67700469 -108.05171381 310.82393716 -104.47705078 313.18212891 C-87.54149362 324.31719454 -69.77251353 334.27499373 -51.74917603 343.53231812 C-50.42532403 344.21450334 -49.1047506 344.90309206 -47.78768921 345.59829712 C-45.94630872 346.56659637 -44.09325382 347.50723729 -42.234375 348.44140625 C-40.64447754 349.25653687 -40.64447754 349.25653687 -39.02246094 350.08813477 C-31.65948329 352.30951776 -22.92082641 345.68029664 -16.3125 342.375 C-15.6540509 342.0463092 -14.99560181 341.71761841 -14.31719971 341.37896729 C6.12544024 331.13393338 25.80138037 319.38850881 44.69451904 306.50376892 C47 305 47 305 49.33474731 303.73832703 C53.95634265 301.16952822 53.95634265 301.16952822 56.90933228 296.96014404 C57.3485703 294.47508868 57.49276617 292.11312371 57.546875 289.58984375 C57.59938416 288.64173325 57.65189331 287.69362274 57.70599365 286.71678162 C57.86192306 283.47718201 57.93899026 280.24273745 58 277 C58.02763428 275.81448547 58.05526855 274.62897095 58.08374023 273.40753174 C58.26408475 264.81209299 58.2824103 256.2221275 58.25390625 247.62561035 C58.2500042 245.56471867 58.25389743 243.50399757 58.26074219 241.44311523 C58.29097411 232.29231309 58.22289476 223.14885504 58 214 C57.97249664 212.84258301 57.94499329 211.68516602 57.91665649 210.49267578 C57.81694754 207.30430994 57.65844079 204.12578761 57.47265625 200.94140625 C57.4438739 200.02130264 57.41509155 199.10119904 57.38543701 198.1532135 C57.01071718 193.1554246 56.13794143 190.58633009 52.31030273 187.23461914 C49.42106834 185.10879689 46.49247463 183.22617233 43.25 181.6796875 C38.74582491 179.42255043 34.53562444 176.88504917 30.29638672 174.16699219 C13.98330728 163.74347484 -2.89131374 154.42132862 -20.1875 145.75 C-20.86118622 145.41131897 -21.53487244 145.07263794 -22.22897339 144.72369385 C-24.14357306 143.76365615 -26.06124159 142.81012247 -27.98046875 141.859375 C-29.09317139 141.30733398 -30.20587402 140.75529297 -31.35229492 140.18652344 C-35.93524293 138.13275421 -38.46575145 140.06552815 -42.68359375 142.15625 Z M-151.875 210.9375 C-155.97121276 214.44293976 -160.09378988 217.89172695 -164.3125 221.25 C-172.98333887 228.2942561 -181.13090236 236.07418276 -189 244 C-185.40764185 252.58613075 -175.97065933 259.07201072 -169 265 C-167.90172402 265.9498047 -166.80412713 266.90039494 -165.70703125 267.8515625 C-156.00830081 277.89445971 -156.00830081 277.89445971 -145 284 C-145 258.26 -145 232.52 -145 206 C-147.37098391 206 -150.06864988 209.38240815 -151.875 210.9375 Z M75 206 C75 231.74 75 257.48 75 284 C85.1027078 276.42296915 94.67419418 268.50466568 104 260 C105.77028857 258.4160576 107.54111532 256.83271648 109.3125 255.25 C112.64379498 252.25445759 115.88478413 249.21905639 119 246 C115.40764185 237.41386925 105.97065933 230.92798928 99 225 C97.90172402 224.0501953 96.80412713 223.09960506 95.70703125 222.1484375 C86.00830081 212.10554029 86.00830081 212.10554029 75 206 Z M-204.890625 260.73828125 C-225.72887874 283.4740581 -249.28270845 315.34030844 -248.34375 347.734375 C-247.04137228 360.10696336 -242.12526705 369.0138986 -232.5625 376.8125 C-207.66449351 394.91255832 -172.4857356 390.84367454 -143.92138672 386.46044922 C-139.2610769 385.721998 -134.62243506 384.94959239 -130 384 C-130.6411266 376.6463552 -132.12532558 369.67827343 -133.8125 362.5 C-135.91892348 353.28787426 -137.77700569 344.08492266 -139.25 334.75 C-139.41725586 333.71431885 -139.58451172 332.6786377 -139.75683594 331.61157227 C-140.44627228 327.20166732 -141.06080611 322.84551604 -141.30078125 318.38671875 C-141.62604238 311.45524374 -141.62604238 311.45524374 -145.07421875 305.70703125 C-147.95227006 303.60206233 -150.93683055 301.82392803 -154 300 C-156.32705219 298.31954126 -158.5703228 296.54154815 -160.8125 294.75 C-161.39990967 294.2861792 -161.98731934 293.8223584 -162.5925293 293.34448242 C-175.01617446 283.4882219 -187.21437909 273.0514671 -198.25 261.6484375 C-201.53825857 258.27945851 -201.53825857 258.27945851 -204.890625 260.73828125 Z M129.61474609 260.17407227 C128.82704834 260.98702759 128.82704834 260.98702759 128.0234375 261.81640625 C127.43941162 262.41219482 126.85538574 263.0079834 126.25366211 263.62182617 C125.63370361 264.26224854 125.01374512 264.9026709 124.375 265.5625 C119.4142674 270.60224313 114.4270831 275.46061823 109 280 C108.03835938 280.82757813 107.07671875 281.65515625 106.0859375 282.5078125 C99.65230657 288.03393612 93.08862818 293.34913332 86.36328125 298.515625 C85.85466553 298.9178125 85.3460498 299.32 84.82202148 299.734375 C83 301 83 301 80.49243164 302.203125 C76.92334258 304.11199923 73.85393653 305.86948735 72.28659058 309.77990723 C71.06575353 314.39564425 70.56016099 319.11516828 70.0803833 323.85653687 C69.62513765 328.34888516 69.02840259 332.82302647 68.44921875 337.30078125 C68.33658691 338.20198196 68.22395508 339.10318268 68.10791016 340.0316925 C66.81957415 350.04262942 64.56258972 359.76875796 62.18286133 369.56640625 C61.89822021 370.74460937 61.6135791 371.9228125 61.3203125 373.13671875 C60.93770264 374.66365356 60.93770264 374.66365356 60.54736328 376.22143555 C60.02037983 378.89654644 59.8948919 381.28242707 60 384 C89.75318887 389.76761872 130.19640106 397.15213051 157.87109375 380.24609375 C168.05580584 373.18450911 174.7005985 365.76859832 177.58203125 353.52734375 C181.67068883 328.80433953 167.41558676 303.57805009 153.67773438 284.12792969 C150.89843742 280.32590206 147.9730149 276.65283473 145 273 C144.15979949 271.95471374 143.31995567 270.90914068 142.48046875 269.86328125 C138.04473597 264.15048935 138.04473597 264.15048935 133 259 C130.95164237 258.78447906 130.95164237 258.78447906 129.61474609 260.17407227 Z M-123 323 C-120.6830194 341.96265704 -116.71092179 360.49441727 -112 379 C-101.44668607 376.77300147 -91.30506019 373.52744511 -81.125 370 C-79.27225464 369.35925537 -79.27225464 369.35925537 -77.38208008 368.70556641 C-70.51620804 366.30332057 -63.72226627 363.77975319 -57 361 C-59.85761504 358.73770421 -62.72279545 357.01870511 -65.98046875 355.390625 C-66.96772949 354.89062988 -67.95499023 354.39063477 -68.97216797 353.87548828 C-70.03322754 353.33907715 -71.09428711 352.80266602 -72.1875 352.25 C-88.6309603 343.82468415 -104.39728145 334.31795412 -119.90478516 324.28076172 C-121.73292599 322.91307424 -121.73292599 322.91307424 -123 323 Z M52 323 C51.4738208 323.3309668 50.9476416 323.66193359 50.40551758 324.00292969 C29.74779405 336.96726282 8.70501025 348.87778412 -13 360 C-8.76701768 362.82198821 -4.18809477 364.34644294 0.5625 366.125 C2.13475342 366.71462524 2.13475342 366.71462524 3.73876953 367.31616211 C22.44436245 375.23659238 22.44436245 375.23659238 42 379 C45.47447681 364.66705076 48.93975533 350.34224342 51.5 335.8125 C51.67176758 334.85851318 51.84353516 333.90452637 52.02050781 332.92163086 C52.2423877 331.60884155 52.2423877 331.60884155 52.46875 330.26953125 C52.66114258 329.13414917 52.66114258 329.13414917 52.85742188 327.97583008 C53.14233978 325.78753911 53.14233978 325.78753911 52 323 Z M-43.875 374.375 C-64.05380861 383.02895188 -84.92854219 389.88347549 -106 396 C-104.59594964 403.60261361 -102.04151181 410.34412188 -99 417.4375 C-98.26740967 419.15187256 -98.26740967 419.15187256 -97.52001953 420.90087891 C-91.22886348 435.37033468 -84.04135609 448.77813045 -74 461 C-73.35546875 461.80824219 -72.7109375 462.61648438 -72.046875 463.44921875 C-63.6436057 473.50923016 -52.36768007 481.85370414 -39.10546875 483.4765625 C-24.85011427 484.27194028 -14.06236684 478.6423331 -3.55078125 469.42871094 C15.69620489 451.69675834 28.85521299 423.85633798 36 399 C36 398.01 36 397.02 36 396 C35.26289795 395.77973145 34.5257959 395.55946289 33.76635742 395.33251953 C11.55480198 388.658931 -10.5250854 381.52674043 -31.69140625 371.9609375 C-36.27977603 370.05105769 -39.60791294 372.50320047 -43.875 374.375 Z " fill="#000000" transform="translate(291,11)"/>
<path d="M0 0 C13.89948668 10.38331772 23.11125422 23.42312514 26.30078125 40.71875 C28.19574121 58.7394094 24.57925216 74.92438601 13.26953125 89.30078125 C3.28444006 101.02623165 -10.39884979 109.32015153 -25.95361328 110.95581055 C-44.80711711 112.03602069 -60.31890192 107.87432715 -74.88671875 95.46875 C-85.78367861 85.23790524 -93.20533616 71.22190943 -94.0703125 56.125 C-94.55238334 36.79121567 -89.55427802 21.35934317 -76.109375 7.0390625 C-55.88153772 -12.43473871 -23.46869354 -15.46172751 0 0 Z M-58.69921875 27.71875 C-64.63725376 34.62253137 -67.69921875 42.53201098 -67.69921875 51.65625 C-66.43115651 55.5396906 -65.32055076 56.82935939 -61.69921875 58.71875 C-58.06682062 58.8903867 -58.06682062 58.8903867 -54.69921875 57.71875 C-51.80732312 54.69381317 -51.01900441 51.75205588 -50.13671875 47.71875 C-48.13848 38.68716244 -48.13848 38.68716244 -45.015625 36.5859375 C-40.75768293 34.99190185 -36.32018509 34.01443729 -31.9140625 32.9140625 C-28.50512154 31.64658263 -27.32480929 30.92794166 -25.69921875 27.71875 C-25.81854798 24.31786697 -26.0578023 21.78777741 -27.82421875 18.84375 C-37.84883109 12.8289826 -51.46305942 20.33640563 -58.69921875 27.71875 Z " fill="#000000" transform="translate(289.69921875,205.28125)"/>
<path d="M0 0 C4.43270731 2.13719817 7.44101899 4.79595977 10 9 C11.99539559 15.04790004 12.64105283 20.02892403 10 26 C6.67218588 30.94418098 3.70542067 33.25936318 -2 35 C-8.28456842 35.69828538 -12.82906947 34.74560993 -18 31 C-21.75496355 27.32868662 -23.79860191 23.37254416 -24.125 18.109375 C-23.83256697 13.17456757 -22.6725286 8.84634797 -19.30859375 5.1328125 C-13.11136114 -0.27521095 -8.19474609 -0.77227974 0 0 Z " fill="#000000" transform="translate(262,51)"/>
<path d="M0 0 C3.9544028 2.97072051 5.71473365 6.34404017 7.1328125 10.9921875 C7.84112548 17.36700431 6.72113044 21.66300245 3.1328125 26.9921875 C-0.36158112 30.89768625 -4.19837931 32.03375164 -9.2421875 32.859375 C-14.48518669 33.12464579 -18.78651298 31.84993261 -22.7265625 28.33203125 C-27.25402162 23.25480923 -28.17597719 19.22441827 -28.078125 12.4921875 C-27.65180739 7.4395344 -25.62858157 4.75358157 -22.1171875 1.2421875 C-15.02879546 -3.66516083 -7.64173997 -4.12462116 0 0 Z " fill="#000000" transform="translate(496.8671875,241.0078125)"/>
<path d="M0 0 C3.43528905 2.7697018 5.96949539 5.27230733 6.875 9.69921875 C7.42019127 15.70641881 7.43880669 20.59109583 3.875 25.69921875 C-0.54360698 30.32823559 -4.70600264 32.26329363 -11.125 32.69921875 C-17.04516809 32.26787681 -20.99839112 30.01776292 -25.125 25.69921875 C-27.87776297 20.83600416 -29.07580607 16.24558747 -28.125 10.69921875 C-26.35005999 5.4602829 -23.9398229 1.61050702 -19.125 -1.30078125 C-12.63202912 -4.10167065 -6.06280779 -3.7112408 0 0 Z " fill="#000000" transform="translate(36.125,241.30078125)"/>
<path d="M0 0 C4.16223724 3.7658337 6.28088241 6.75900404 7.0078125 12.28515625 C7.23717288 18.45495035 6.98641497 22.65995679 2.625 27.375 C-2.84027759 32.18964931 -6.13828869 32.72979689 -13.32421875 32.65234375 C-18.96928123 32.13915625 -21.93296844 29.96882436 -25.75 25.75 C-28.54858717 19.93754972 -29.07839959 14.75874305 -27.25 8.5625 C-21.02320217 -2.02305631 -11.03792305 -5.31455554 0 0 Z " fill="#000000" transform="translate(104.375,334.625)"/>
</svg>
