<?xml version="1.0" encoding="UTF-8"?>
<svg version="1.1" xmlns="http://www.w3.org/2000/svg" width="512" height="512">
<path d="M0 0 C1.92922835 1.02183101 3.87264362 2.00895958 5.82373047 2.98828125 C6.99033203 3.58640625 8.15693359 4.18453125 9.35888672 4.80078125 C10.39787109 5.331875 11.43685547 5.86296875 12.50732422 6.41015625 C15.13315152 8.14966329 16.0418825 9.0811704 16.98388672 12.05078125 C16.76993953 18.14827617 16.76993953 18.14827617 14.29638672 20.98828125 C11.30598476 22.36224972 9.26134367 22.28118818 5.98388672 22.05078125 C3.35009766 20.99682617 3.35009766 20.99682617 0.71826172 19.53125 C-0.25498047 19.00337891 -1.22822266 18.47550781 -2.23095703 17.93164062 C-3.73335938 17.09342773 -3.73335938 17.09342773 -5.26611328 16.23828125 C-16.12593667 10.21214396 -26.98868267 4.51651744 -39.67358398 7.72241211 C-47.73604295 10.33758315 -54.9289345 13.94707699 -62.32861328 18.05078125 C-64.18090125 19.06351254 -66.03508406 20.07271624 -67.88934326 21.08183289 C-69.13608774 21.76065549 -70.38222498 22.44059456 -71.62774658 23.12165833 C-77.34006471 26.24243087 -83.10837306 29.25020729 -88.89111328 32.23828125 C-96.19266891 36.02331814 -103.43616635 39.8975995 -110.64111328 43.86328125 C-119.19400619 48.56900547 -127.83445598 53.08906412 -136.51611328 57.55078125 C-146.1334781 62.49348613 -155.6884082 67.52965405 -165.15454102 72.75805664 C-169.69255054 75.25925148 -174.25035263 77.70276815 -178.86376953 80.0625 C-179.82154297 80.55395508 -180.77931641 81.04541016 -181.76611328 81.55175781 C-183.58349633 82.48001145 -185.40487595 83.40049992 -187.23095703 84.31152344 C-195.3816374 88.46835908 -195.3816374 88.46835908 -200.01611328 96.05078125 C-200.28663811 98.13228698 -200.28663811 98.13228698 -200.32861328 100.36328125 C-200.36599609 101.10191406 -200.40337891 101.84054688 -200.44189453 102.6015625 C-199.82925302 106.12565634 -198.4786099 108.52831269 -196.01611328 111.05078125 C-192.89674369 113.22495585 -189.5828621 114.94150752 -186.20361328 116.67578125 C-185.23166016 117.19011719 -184.25970703 117.70445312 -183.25830078 118.234375 C-180.18552026 119.85557242 -177.10207806 121.45484501 -174.01611328 123.05078125 C-172.08474317 124.05786431 -170.15374529 125.0656616 -168.22314453 126.07421875 C-165.35477353 127.57136849 -162.48551257 129.06664647 -159.61303711 130.5559082 C-153.15775659 133.90765714 -146.76239507 137.35486617 -140.39111328 140.86328125 C-131.21982221 145.90949381 -121.94299627 150.73428558 -112.63348389 155.51821899 C-104.7042711 159.59520509 -96.82425281 163.74505822 -89.01611328 168.05078125 C-80.96035436 172.48464177 -72.85098415 176.80636543 -64.69287109 181.04833984 C-63.42900447 181.7058964 -62.16595336 182.36502335 -60.90380859 183.02587891 C-47.21347077 190.7077043 -47.21347077 190.7077043 -32.07861328 193.55078125 C-30.45632813 193.56625 -30.45632813 193.56625 -28.80126953 193.58203125 C-19.35333274 192.25600503 -11.15800629 187.75760549 -2.95361328 183.11328125 C-1.10953803 182.08158538 0.73550916 181.05162477 2.58154297 180.0234375 C3.46986816 179.52859863 4.35819336 179.03375977 5.2734375 178.52392578 C9.45368104 176.25193969 13.70927645 174.13859699 17.98388672 172.05078125 C16.27266108 168.41676548 14.18454785 165.92441022 11.42138672 162.98828125 C8.00780031 159.31827521 4.74433489 155.5907924 1.60888672 151.67578125 C-2.25830192 146.87937415 -6.36592044 142.38036665 -10.57421875 137.88720703 C-14.46974093 133.70432041 -18.07930486 129.34482174 -21.65283203 124.8828125 C-24.90063864 120.99081284 -28.3536939 117.30411764 -31.85595703 113.640625 C-39.69565511 105.33976821 -39.69565511 105.33976821 -40.45361328 99.92578125 C-39.948512 96.60654425 -39.55381253 95.26103543 -37.01611328 93.05078125 C-33.38371695 92.04178227 -31.11930456 91.54273264 -27.64111328 93.14453125 C-24.32898405 95.54976796 -21.97162525 98.33479587 -19.39111328 101.48828125 C-18.3317331 102.75542816 -17.27049775 104.02102613 -16.20751953 105.28515625 C-15.40918701 106.23551758 -15.40918701 106.23551758 -14.59472656 107.20507812 C-12.24566853 109.95157962 -9.79375011 112.59622072 -7.32861328 115.23828125 C-3.94003766 118.88410319 -0.69708453 122.60701848 2.42138672 126.48828125 C5.78735928 130.67316664 9.31573752 134.63382683 12.98388672 138.55078125 C17.53224317 143.40959591 21.83158402 148.40365422 26.00341797 153.59375 C28.59449484 156.80832072 31.27999165 159.93090233 33.98388672 163.05078125 C44.36252105 157.91508504 54.64810294 152.63691365 64.85888672 147.17578125 C67.64751913 145.68799509 70.43683022 144.20148295 73.22607422 142.71484375 C73.93801941 142.33511414 74.6499646 141.95538452 75.38348389 141.56414795 C80.60002218 138.78327114 85.82510179 136.01889709 91.05419922 133.26171875 C92.56217821 132.46599014 94.0701535 131.67025451 95.578125 130.87451172 C97.74269599 129.73241391 99.90757004 128.59091777 102.07366943 127.45172119 C106.04620943 125.36215635 110.01004114 123.2575198 113.96337891 121.13183594 C115.36211899 120.38345253 116.76404205 119.64099917 118.16845703 118.90332031 C120.36482438 117.74789447 122.54992596 116.57320644 124.73388672 115.39453125 C125.40178223 115.04837769 126.06967773 114.70222412 126.7578125 114.34558105 C131.14381968 111.94467373 133.51981606 109.54390715 135.98388672 105.05078125 C136.8914089 100.69896228 136.50024817 97.06198909 134.48388672 93.11328125 C133.74138672 92.09234375 133.74138672 92.09234375 132.98388672 91.05078125 C132.98388672 90.39078125 132.98388672 89.73078125 132.98388672 89.05078125 C132.2567749 88.77024902 131.52966309 88.4897168 130.78051758 88.20068359 C128.18154767 87.13205433 125.72810133 85.95121935 123.23779297 84.65234375 C121.87605957 83.94295654 121.87605957 83.94295654 120.48681641 83.21923828 C119.51647461 82.70989746 118.54613281 82.20055664 117.54638672 81.67578125 C116.52577148 81.14194824 115.50515625 80.60811523 114.45361328 80.05810547 C106.76703279 76.02294681 99.14573347 71.87665178 91.53881836 67.69384766 C84.2444941 63.69962885 76.87627117 59.85994385 69.48388672 56.05078125 C60.83464837 51.59023755 52.22025708 47.07618163 43.67138672 42.42578125 C42.77677734 41.94109375 41.88216797 41.45640625 40.96044922 40.95703125 C28.53882355 34.16065492 28.53882355 34.16065492 26.98388672 31.05078125 C26.44353525 26.99814527 26.64189277 25.51347894 29.10888672 22.17578125 C32.56527765 19.62105752 33.77750668 19.64193444 37.98388672 20.05078125 C40.97802734 21.23730469 40.97802734 21.23730469 44.14013672 22.91015625 C44.71517944 23.21028625 45.29022217 23.51041626 45.88269043 23.81964111 C47.75625738 24.80153899 49.61991816 25.80080016 51.48388672 26.80078125 C52.79589466 27.49312077 54.10840077 28.18451701 55.42138672 28.875 C63.85910602 33.32581909 72.23904605 37.88380883 80.59326172 42.48925781 C88.15547193 46.64349829 95.8110655 50.60650121 103.48388672 54.55078125 C112.5253692 59.20339475 121.54238454 63.89521981 130.48388672 68.73828125 C131.82676758 69.45951172 131.82676758 69.45951172 133.19677734 70.1953125 C139.22244858 73.48289618 144.33868715 76.5688409 148.17138672 82.42578125 C148.65994141 83.15539062 149.14849609 83.885 149.65185547 84.63671875 C152.58707194 89.95626063 153.2582779 94.57036585 153.23388672 100.61328125 C153.23904297 101.89332031 153.24419922 103.17335938 153.24951172 104.4921875 C152.99796082 107.86222973 152.30389522 109.99359176 150.98388672 113.05078125 C151.94258667 113.01936035 151.94258667 113.01936035 152.9206543 112.98730469 C176.50310588 112.31540362 176.50310588 112.31540362 184.98388672 117.05078125 C186.56169922 117.88609375 186.56169922 117.88609375 188.17138672 118.73828125 C196.96092792 125.96523735 202.01973686 133.81309102 203.98388672 145.05078125 C204.06896739 146.67533245 204.10768112 148.30278515 204.10693455 149.92956257 C204.1089256 150.8904848 204.11091664 151.85140704 204.11296803 152.84144813 C204.11005519 153.88911281 204.10714234 154.93677748 204.10414124 156.01618958 C204.10542287 157.69481245 204.10542287 157.69481245 204.1067304 159.4073469 C204.1083801 163.16456581 204.10287211 166.92174027 204.09741211 170.67895508 C204.0971301 173.36931458 204.09724418 176.05967135 204.09785461 178.75003052 C204.09837886 184.54599787 204.09524241 190.34195396 204.08961678 196.13791847 C204.08148836 204.51790066 204.07888518 212.8978774 204.07762878 221.27786311 C204.07544038 234.87396586 204.06878601 248.47006261 204.05932617 262.06616211 C204.0501466 275.27319305 204.04306843 288.48022237 204.03881836 301.68725586 C204.03842427 302.90846012 204.03842427 302.90846012 204.03802223 304.15433518 C204.03671719 308.23863345 204.03545348 312.32293173 204.03421032 316.40723002 C204.02384429 350.28841811 204.0062317 384.16959895 203.98388672 418.05078125 C205.00869141 418.004375 206.03349609 417.95796875 207.08935547 417.91015625 C208.45000327 417.87262114 209.81068277 417.83622284 211.17138672 417.80078125 C211.84492188 417.76726562 212.51845703 417.73375 213.21240234 417.69921875 C216.83442528 417.62854513 218.82635868 417.95334854 221.93173218 419.87405396 C224.73517609 422.84767644 224.62875523 424.68492521 224.64794922 428.73046875 C224.65273285 429.37968292 224.65751648 430.02889709 224.66244507 430.69778442 C224.66584265 432.0745892 224.65664926 433.45147478 224.63574219 434.828125 C224.60939514 436.88606859 224.63525058 438.93833925 224.66748047 440.99609375 C224.70664268 455.76803532 220.26637687 467.41720288 209.95654297 478.1640625 C196.44205804 491.14090065 181.4482167 492.35483701 163.68948364 492.31147766 C161.9322388 492.31450114 160.17499527 492.31839161 158.41775405 492.32307023 C153.60642166 492.33333357 148.79516392 492.33117265 143.98382545 492.32688963 C138.78807765 492.3244194 133.59234768 492.33344025 128.39660645 492.34092712 C118.22445477 492.35366772 108.0523295 492.35546862 97.88017119 492.35312686 C89.61105836 492.35134289 81.34195353 492.35309505 73.07284164 492.3573513 C71.30661517 492.35824409 71.30661517 492.35824409 69.50470736 492.35915491 C67.11254947 492.36036667 64.72039159 492.36158081 62.3282337 492.36279728 C39.90145077 492.37367029 17.47468289 492.37151142 -4.95210089 492.36541244 C-25.46166576 492.36024309 -45.97118314 492.37149965 -66.48073862 492.39051066 C-87.54906885 492.40988965 -108.6173766 492.41814497 -129.68571579 492.4143874 C-141.51034046 492.41247551 -153.3349247 492.41496186 -165.15954208 492.42910194 C-175.22556946 492.44101744 -185.29153151 492.44241866 -195.35755979 492.43031178 C-200.49118386 492.42442443 -205.62468848 492.42331979 -210.7583046 492.43531418 C-215.46238503 492.44617709 -220.16624632 492.44306469 -224.87031652 492.42905249 C-226.5673934 492.42640672 -228.26448748 492.42876833 -229.96154748 492.43678836 C-247.39518028 492.51342501 -261.79547927 489.73372217 -274.76220703 477.35546875 C-284.78466849 467.10719793 -288.73625233 455.14359934 -288.69970703 440.99609375 C-288.6892334 440.32739258 -288.67875977 439.65869141 -288.66796875 438.96972656 C-288.64065371 436.89080379 -288.66813676 434.81706227 -288.69970703 432.73828125 C-288.69641027 431.40233195 -288.69001927 430.06638585 -288.68017578 428.73046875 C-288.67453613 427.54179199 -288.66889648 426.35311523 -288.66308594 425.12841797 C-288.01611328 422.05078125 -288.01611328 422.05078125 -285.96395874 419.87405396 C-282.29690325 417.60594245 -279.36787679 417.59356431 -275.20361328 417.80078125 C-274.51074219 417.81882812 -273.81787109 417.836875 -273.10400391 417.85546875 C-271.40743664 417.90227061 -269.71158852 417.97400501 -268.01611328 418.05078125 C-268.01782202 417.19055706 -268.01782202 417.19055706 -268.01956528 416.3129546 C-268.0867436 382.30089536 -268.13819522 348.28885124 -268.16930927 314.27674009 C-268.17306125 310.19010851 -268.17694423 306.10347708 -268.1809082 302.0168457 C-268.18169513 301.20329329 -268.18248207 300.38974087 -268.18329284 299.55153535 C-268.19633601 286.3898645 -268.21998384 273.2282331 -268.24757167 260.06658562 C-268.27565621 246.55497669 -268.29229598 233.04338837 -268.29837877 219.53175145 C-268.30248889 211.19872138 -268.31545623 202.86580278 -268.33986268 194.53280703 C-268.35575753 188.81350685 -268.36050518 183.09426405 -268.35661741 177.3749434 C-268.35470167 174.07838514 -268.35923168 170.7820614 -268.37372971 167.48552895 C-268.38871128 163.90277123 -268.3850458 160.3204859 -268.37687683 156.73771667 C-268.38561536 155.70752905 -268.39435388 154.67734142 -268.40335721 153.61593598 C-268.33021963 141.70374533 -265.40426639 131.85672496 -257.16455078 123.078125 C-250.21769284 116.56025629 -242.14145387 112.90008491 -232.59423828 112.953125 C-231.05703125 112.95795898 -231.05703125 112.95795898 -229.48876953 112.96289062 C-228.42529297 112.97126953 -227.36181641 112.97964844 -226.26611328 112.98828125 C-225.18716797 112.99279297 -224.10822266 112.99730469 -222.99658203 113.00195312 C-220.33636945 113.01372398 -217.67626963 113.03016726 -215.01611328 113.05078125 C-215.50072021 111.91902466 -215.50072021 111.91902466 -215.99511719 110.7644043 C-218.62256565 103.78112125 -217.92374638 94.40163178 -215.32861328 87.48828125 C-209.08229327 74.50363657 -195.22994028 68.96328336 -182.90209961 62.72412109 C-179.71633464 61.11097835 -176.54010796 59.47926244 -173.36376953 57.84765625 C-172.73072906 57.52277222 -172.0976886 57.19788818 -171.44546509 56.86315918 C-165.91770778 54.01794639 -160.45803189 51.05682271 -155.01611328 48.05078125 C-145.97185249 43.06142747 -136.81798046 38.3029457 -127.63183594 33.58251953 C-119.70318553 29.50581163 -111.82349473 25.3565908 -104.01611328 21.05078125 C-91.87479475 14.36108574 -79.55992403 8.01593838 -67.22167969 1.69970703 C-64.46062719 0.27943677 -61.71054512 -1.15882776 -58.96533203 -2.609375 C-38.1003995 -13.54515164 -20.27363428 -10.82310007 0 0 Z M-135.01611328 163.05078125 C-135.06637394 167.08516561 -135.10222948 171.11942328 -135.12597656 175.15405273 C-135.13589891 176.52029605 -135.14944114 177.88651894 -135.16699219 179.25268555 C-135.41594967 199.16196217 -132.26673486 216.3362112 -118.26611328 231.23828125 C-101.60120611 247.08720427 -75.06758953 252.03427913 -53.01611328 255.05078125 C-52.06865234 255.18355469 -51.12119141 255.31632812 -50.14501953 255.453125 C-25.12542449 258.30247046 1.15686384 254.99312221 24.98388672 247.05078125 C24.98388672 227.25078125 24.98388672 207.45078125 24.98388672 187.05078125 C15.1023589 191.99154516 5.29073193 196.92270449 -4.36572266 202.26757812 C-13.16231848 206.9865501 -21.87921453 209.5885826 -31.89111328 209.48828125 C-32.94105469 209.51825195 -32.94105469 209.51825195 -34.01220703 209.54882812 C-45.5681421 209.53849187 -56.00046474 204.43524512 -65.95361328 199.05078125 C-67.03352539 198.47827637 -68.1134375 197.90577148 -69.22607422 197.31591797 C-76.98282505 193.18981743 -84.68795941 188.96796163 -92.38671875 184.73486328 C-100.391468 180.35010539 -108.47476858 176.12352336 -116.57861328 171.92578125 C-117.21416138 171.59564026 -117.84970947 171.26549927 -118.5045166 170.925354 C-120.32078701 169.98266024 -122.13880493 169.04343677 -123.95751953 168.10546875 C-125.5306189 167.29311768 -125.5306189 167.29311768 -127.13549805 166.46435547 C-129.72710952 165.19260104 -132.32013142 164.07903351 -135.01611328 163.05078125 Z M62.66357422 166.33203125 C61.53161621 166.94111328 60.3996582 167.55019531 59.23339844 168.17773438 C57.06801514 169.35239258 57.06801514 169.35239258 54.85888672 170.55078125 C50.28013672 173.02578125 45.70138672 175.50078125 40.98388672 178.05078125 C40.98388672 198.51078125 40.98388672 218.97078125 40.98388672 240.05078125 C55.31489194 232.08911168 64.07355016 221.76713817 68.98388672 206.05078125 C71.05509219 196.4683165 71.23430992 187.00117625 71.10888672 177.23828125 C71.09882044 175.85222013 71.08970114 174.46615179 71.08154297 173.08007812 C71.05824478 169.73678852 71.02553534 166.39388394 70.98388672 163.05078125 C67.82664091 163.05078125 65.3782182 164.85272139 62.66357422 166.33203125 Z M-247.39111328 136.36328125 C-247.85259766 136.89566406 -248.31408203 137.42804688 -248.78955078 137.9765625 C-252.53731772 144.31434672 -252.29684883 151.04219384 -252.25662231 158.18077087 C-252.25833435 159.29071915 -252.26004639 160.40066742 -252.2618103 161.54425049 C-252.26511726 165.27036995 -252.25407905 168.99630911 -252.24316406 172.72241211 C-252.24143819 175.43660113 -252.24272969 178.15078681 -252.24389458 180.86497593 C-252.24495655 187.3974824 -252.23573505 193.92993375 -252.22289192 200.46242607 C-252.2084773 208.02089525 -252.20690162 215.57933143 -252.20532227 223.13781738 C-252.19482673 243.08798073 -252.16690444 263.03813182 -252.14111328 282.98828125 C-252.09986328 327.55890625 -252.05861328 372.12953125 -252.01611328 418.05078125 C-106.81611328 418.05078125 38.38388672 418.05078125 187.98388672 418.05078125 C188.04576172 373.50078125 188.10763672 328.95078125 188.17138672 283.05078125 C188.19869873 268.97550781 188.22601074 254.90023437 188.25415039 240.3984375 C188.26418268 227.79943958 188.26418268 227.79943958 188.2702179 215.20043945 C188.27301681 209.58158611 188.28402685 203.96282213 188.3006134 198.34399414 C188.31971634 191.86313557 188.32839293 185.38236278 188.32422157 178.90147585 C188.3224151 175.58651801 188.32694488 172.27190551 188.34153211 168.95695686 C188.3564383 165.40482317 188.35286243 161.85316996 188.34465027 158.30102539 C188.35338826 157.27017822 188.36212626 156.23933105 188.37112904 155.17724609 C188.32500672 147.7620957 187.27475177 141.05793163 182.23388672 135.23828125 C181.56099609 134.42423828 181.56099609 134.42423828 180.87451172 133.59375 C175.95978198 129.58276189 170.33345224 128.50545196 164.14794922 128.16015625 C163.4029567 128.11782867 162.65796417 128.0755011 161.89039612 128.03189087 C159.46294505 127.92037005 157.03834784 127.85152733 154.60888672 127.80078125 C153.77950592 127.78154602 152.95012512 127.76231079 152.09561157 127.74249268 C132.70727584 127.52061932 116.66556134 135.01346302 100.98388672 146.05078125 C100.65388672 146.71078125 100.32388672 147.37078125 99.98388672 148.05078125 C100.77902176 148.0588681 101.5741568 148.06695496 102.39338684 148.07528687 C109.88311569 148.15319516 117.37264865 148.24047419 124.86214161 148.33830833 C128.7126638 148.38827579 132.5631585 148.43460565 136.41381836 148.47265625 C140.12922311 148.50950361 143.84439809 148.55586177 147.55960655 148.60884476 C148.97774924 148.62739169 150.39594118 148.64249858 151.81415749 148.65412521 C153.79897305 148.67098175 155.7836621 148.701152 157.76831055 148.73193359 C158.89860184 148.74525726 160.02889313 148.75858093 161.19343567 148.77230835 C163.98388672 149.05078125 163.98388672 149.05078125 166.98388672 151.05078125 C167.89158326 153.77387087 168.1097947 155.34402861 168.11252117 158.14130306 C168.11574562 158.97734096 168.11897006 159.81337885 168.12229222 160.67475122 C168.12074362 161.59322086 168.11919502 162.5116905 168.11759949 163.45799255 C168.11986504 164.43370258 168.1221306 165.4094126 168.12446481 166.4146896 C168.13081782 169.69891628 168.12997461 172.98310183 168.12915039 176.26733398 C168.13214105 178.61593683 168.13554336 180.96453917 168.139328 183.31314087 C168.14818118 189.70352649 168.15050665 196.09389873 168.15114379 202.48428988 C168.15172003 207.14168153 168.15486978 211.79907091 168.15798027 216.45646148 C168.16628764 228.97571084 168.17002219 241.49495308 168.16931053 254.01420509 C168.1692506 255.08092235 168.1692506 255.08092235 168.16918945 256.16918945 C168.16914857 256.88120064 168.16910769 257.59321182 168.16906557 258.3267991 C168.16865899 269.86990311 168.17823135 281.41297452 168.19232782 292.9560691 C168.20668169 304.80323573 168.21359856 316.65038645 168.21273404 328.49756199 C168.21240175 335.15096408 168.21535659 341.80433611 168.22591209 348.45773125 C168.23556459 354.71293935 168.23569189 360.96807508 168.22839546 367.22328568 C168.2273461 369.5227284 168.2297332 371.82217556 168.23575592 374.12161064 C168.24342917 377.25335541 168.23886206 380.3848473 168.23112488 383.5165863 C168.23626844 384.43282522 168.241412 385.34906414 168.24671143 386.29306787 C168.24211264 387.13171351 168.23751384 387.97035915 168.23277569 388.8344183 C168.23310174 389.91873856 168.23310174 389.91873856 168.23343438 391.02496427 C167.93914355 393.41400436 167.24397871 395.00752714 165.98388672 397.05078125 C163.4117364 398.33685641 161.58324783 398.1785395 158.70176029 398.18220901 C157.57449152 398.18605016 156.44722275 398.1898913 155.28579432 398.19384885 C154.03689006 398.19298237 152.7879858 398.19211588 151.50123596 398.19122314 C149.52336661 398.19567983 149.52336661 398.19567983 147.50554031 398.20022655 C143.83313863 398.20831555 140.16075647 398.21008717 136.48834693 398.21082401 C132.53259051 398.21267124 128.5768443 398.22021682 124.62109375 398.22695923 C115.96632949 398.24055589 107.31156986 398.24656915 98.65679669 398.25096989 C93.25658332 398.25372969 87.85637175 398.25796652 82.45615959 398.26247406 C67.51515725 398.27466776 52.57415636 398.28496734 37.63314915 398.28834915 C36.67643564 398.28856872 35.71972213 398.28878828 34.73401731 398.2890145 C33.77497169 398.28923278 32.81592606 398.28945106 31.82781845 398.28967595 C29.88431712 398.29011942 27.94081579 398.29056599 25.99731445 398.29101562 C24.5512385 398.29134777 24.5512385 398.29134777 23.07594889 398.29168662 C7.44525351 398.29563696 -8.18539531 398.3130977 -23.81607269 398.33637515 C-39.84989831 398.360061 -55.88370054 398.37254971 -71.91754395 398.37371707 C-80.92564526 398.37463532 -89.9336859 398.38042522 -98.94177055 398.39853668 C-106.61036206 398.41390031 -114.27887415 398.41908029 -121.94747811 398.41079858 C-125.8627637 398.40687893 -129.77788917 398.40788529 -133.69315529 398.42185593 C-137.27389495 398.43451652 -140.8543529 398.4334672 -144.43509174 398.42126521 C-146.35149808 398.41835735 -148.26790894 398.43030308 -150.18427747 398.44268727 C-151.31415399 398.43609743 -152.44403051 398.42950758 -153.60814571 398.42271805 C-155.07660675 398.42361368 -155.07660675 398.42361368 -156.57473367 398.42452741 C-159.01611328 398.05078125 -159.01611328 398.05078125 -160.8267675 396.74237895 C-162.84915845 393.86594727 -162.43190158 391.43648601 -162.01611328 388.05078125 C-159.99527736 385.43563882 -158.79897434 384.20893085 -155.52517819 383.54757524 C-154.58195289 383.54605635 -153.63872759 383.54453747 -152.66691971 383.54297256 C-151.57561949 383.53152498 -150.48431927 383.52007739 -149.35994935 383.5082829 C-148.1615158 383.51604332 -146.96308224 383.52380373 -145.72833252 383.53179932 C-144.45493004 383.52429806 -143.18152755 383.51679681 -141.86953712 383.50906825 C-138.33256226 383.48876868 -134.79598758 383.49337191 -131.25898099 383.50197577 C-127.44574513 383.50691176 -123.63261092 383.48884679 -119.81941223 383.47355652 C-113.21200501 383.45021883 -106.60470762 383.4414971 -99.99726105 383.4426651 C-90.44399619 383.44433276 -80.89087796 383.4240157 -71.33765218 383.3983098 C-55.83871537 383.35720319 -40.33980489 383.33390939 -24.84082031 383.32177734 C-9.78382834 383.30995321 5.27311377 383.2897192 20.33007812 383.25830078 C21.7361353 383.25538251 21.7361353 383.25538251 23.17059767 383.25240529 C30.50131434 383.23712466 37.83202994 383.2213558 45.16274524 383.20543265 C81.10311761 383.12749115 117.04341767 383.09213967 152.98388672 383.05078125 C152.98388672 310.78078125 152.98388672 238.51078125 152.98388672 164.05078125 C131.20388672 164.05078125 109.42388672 164.05078125 86.98388672 164.05078125 C86.65388672 173.62078125 86.32388672 183.19078125 85.98388672 193.05078125 C84.14792031 214.92938094 76.89145611 231.49769954 60.54638672 246.30078125 C54.63480577 251.15377677 47.81701167 254.68876476 40.98388672 258.05078125 C38.24893492 271.59530445 44.55942956 280.41052191 51.62841797 291.546875 C56.48790089 299.25668235 59.20786391 306.1149105 57.58544922 315.30859375 C55.90483329 321.74731711 52.38092869 325.31118019 46.98388672 329.05078125 C39.47874974 333.19687752 29.94557181 333.05769128 21.82763672 330.73828125 C16.16953203 328.6284795 12.4140746 324.91021408 8.98388672 320.05078125 C5.80284373 311.87095643 6.41465231 305.73301714 9.65136719 297.89331055 C12.62844673 291.54260751 16.49371019 285.6513617 20.20263672 279.70898438 C24.72561094 272.37591813 24.72561094 272.37591813 24.98388672 264.05078125 C20.35542795 264.65019447 15.83642833 265.47762401 11.27490234 266.45996094 C-29.92863124 275.24290486 -82.12534553 274.00798359 -118.76611328 250.67578125 C-134.56576427 239.62733796 -144.78634129 224.59627719 -148.72705078 205.62890625 C-150.75849619 191.90928946 -150.54117134 177.8240975 -151.01611328 164.05078125 C-172.79611328 164.05078125 -194.57611328 164.05078125 -217.01611328 164.05078125 C-217.01611328 236.32078125 -217.01611328 308.59078125 -217.01611328 383.05078125 C-200.18611328 383.54578125 -200.18611328 383.54578125 -183.01611328 384.05078125 C-179.01611328 386.05078125 -179.01611328 386.05078125 -178.26611328 387.85546875 C-178.18361328 388.53867187 -178.10111328 389.221875 -178.01611328 389.92578125 C-177.91298828 390.60382813 -177.80986328 391.281875 -177.70361328 391.98046875 C-178.01611328 394.05078125 -178.01611328 394.05078125 -179.38891602 396.15136719 C-183.47381633 399.10467306 -187.44749209 398.58409788 -192.36376953 398.51171875 C-193.37201279 398.51080231 -194.38025604 398.50988586 -195.41905212 398.50894165 C-197.54821487 398.50290486 -199.67736909 398.48715661 -201.80639648 398.46240234 C-205.06997872 398.42587788 -208.33242606 398.42138314 -211.59619141 398.421875 C-213.66456062 398.41204445 -215.73292213 398.40038772 -217.80126953 398.38671875 C-218.7794313 398.3844931 -219.75759308 398.38226746 -220.76539612 398.37997437 C-221.67321335 398.36721466 -222.58103058 398.35445496 -223.51635742 398.34130859 C-224.31481583 398.333685 -225.11327423 398.3260614 -225.93592834 398.31820679 C-228.01611328 398.05078125 -228.01611328 398.05078125 -231.01611328 396.05078125 C-231.92380982 393.32769163 -232.14202126 391.75753389 -232.14474773 388.96025944 C-232.14797218 388.12422154 -232.15119663 387.28818365 -232.15451878 386.42681128 C-232.15297018 385.50834164 -232.15142158 384.589872 -232.14982605 383.64356995 C-232.15209161 382.66785992 -232.15435716 381.6921499 -232.15669137 380.6868729 C-232.16304438 377.40264622 -232.16220118 374.11846067 -232.16137695 370.83422852 C-232.16436761 368.48562567 -232.16776992 366.13702333 -232.17155457 363.78842163 C-232.18040774 357.39803601 -232.18273322 351.00766377 -232.18337035 344.61727262 C-232.18394659 339.95988097 -232.18709635 335.30249159 -232.19020683 330.64510102 C-232.19851421 318.12585166 -232.20224875 305.60660942 -232.2015371 293.08735741 C-232.20149714 292.37621257 -232.20145718 291.66506773 -232.20141602 290.93237305 C-232.20137513 290.22036186 -232.20133425 289.50835068 -232.20129213 288.7747634 C-232.20088555 277.23165939 -232.21045792 265.68858798 -232.22455438 254.1454934 C-232.23890826 242.29832677 -232.24582512 230.45117605 -232.24496061 218.60400051 C-232.24462831 211.95059842 -232.24758315 205.29722639 -232.25813866 198.64383125 C-232.26779115 192.38862315 -232.26791845 186.13348742 -232.26062202 179.87827682 C-232.25957266 177.5788341 -232.26195976 175.27938694 -232.26798248 172.97995186 C-232.27565573 169.84820709 -232.27108863 166.7167152 -232.26335144 163.5849762 C-232.268495 162.66873728 -232.27363857 161.75249836 -232.278938 160.80849463 C-232.2720398 159.55052617 -232.2720398 159.55052617 -232.26500225 158.2671442 C-232.26521962 157.54426403 -232.26543699 156.82138386 -232.26566094 156.07659823 C-231.97137011 153.68755814 -231.27620528 152.09403536 -230.01611328 150.05078125 C-227.2601819 148.67281556 -224.99831514 148.88779186 -221.9140625 148.84545898 C-220.63288544 148.82551376 -219.35170837 148.80556854 -218.03170776 148.78501892 C-216.62807335 148.76803456 -215.22443765 148.75115576 -213.82080078 148.734375 C-212.38875731 148.71380585 -210.95671991 148.69280939 -209.52468872 148.67140198 C-205.75344765 148.61617722 -201.98215176 148.56676978 -198.21081543 148.51855469 C-194.36331292 148.46834258 -190.51589015 148.41265501 -186.66845703 148.35742188 C-179.11774328 148.24983538 -171.56696328 148.14839154 -164.01611328 148.05078125 C-175.59008299 136.05856907 -194.41938946 128.33635575 -210.82298279 127.77033997 C-213.36896914 127.73733181 -215.90787626 127.75544786 -218.45361328 127.80078125 C-219.27366852 127.81178864 -220.09372375 127.82279602 -220.93862915 127.83413696 C-235.67704764 128.12111237 -235.67704764 128.12111237 -247.39111328 136.36328125 Z M31.98388672 290.05078125 C30.4277633 292.40292164 28.94258623 294.76418516 27.48388672 297.17578125 C27.06751953 297.8409375 26.65115234 298.50609375 26.22216797 299.19140625 C23.852639 303.1022793 22.17473754 306.36811995 21.98388672 311.05078125 C24.08416818 314.42623359 25.18591556 315.78479086 28.98388672 317.05078125 C33.98790107 317.42144898 36.96689996 317.1495996 40.98388672 314.05078125 C43.25410825 311.27734466 43.25410825 311.27734466 42.89013672 308.35546875 C41.73431465 304.14070378 39.78948582 300.85902936 37.48388672 297.17578125 C37.06751953 296.48742187 36.65115234 295.7990625 36.22216797 295.08984375 C35.17856972 293.38766408 34.0855415 291.71597483 32.98388672 290.05078125 C32.65388672 290.05078125 32.32388672 290.05078125 31.98388672 290.05078125 Z M-273.01611328 434.05078125 C-273.01611328 446.7864291 -271.98511254 456.39221786 -263.16064453 466.08984375 C-255.571208 473.20967443 -247.20269074 476.17221366 -236.93008995 476.18220901 C-236.2126001 476.18426165 -235.49511024 476.18631428 -234.75587827 476.18842912 C-232.33913733 476.19410698 -229.92245324 476.1926409 -227.50570679 476.19122314 C-225.76046547 476.19380634 -224.01522474 476.19681937 -222.26998484 476.20022655 C-217.46405812 476.20830532 -212.65814633 476.21008661 -207.85221362 476.21082401 C-202.67276276 476.21267306 -197.49331967 476.22021969 -192.31387329 476.22695923 C-180.98322262 476.24054968 -169.65257548 476.24656848 -158.32191801 476.25096989 C-151.24821745 476.25373131 -144.17451827 476.2579685 -137.10081863 476.26247406 C-117.51971459 476.27466805 -97.93861165 476.28496685 -78.35750389 476.28834915 C-76.47708729 476.2886785 -76.47708729 476.2886785 -74.55868248 476.2890145 C-73.30205153 476.28923278 -72.04542057 476.28945106 -70.75070989 476.28967595 C-68.2042493 476.29011942 -65.65778871 476.29056598 -63.11132812 476.29101562 C-61.84819257 476.29123705 -60.58505702 476.29145848 -59.28364463 476.29168662 C-38.81761537 476.29563439 -18.35162172 476.31308718 2.11439379 476.33637515 C23.12150065 476.36008604 44.12858965 476.3725509 65.13571012 476.37371707 C76.93241844 476.37463402 88.72908037 476.3803913 100.52577591 476.39853668 C110.57150673 476.41393416 120.61717683 476.41906022 130.66291721 476.41079858 C135.78815401 476.40689074 140.91326853 476.40782826 146.0384903 476.42185593 C150.73283162 476.43458672 155.42695867 476.43340447 160.12129967 476.42126521 C161.81717657 476.41930679 163.51306861 476.42239336 165.20892425 476.43110958 C179.06181587 476.49778654 189.28555054 475.26587653 199.67138672 465.45703125 C208.10304148 456.5194772 208.98388672 445.87074241 208.98388672 434.05078125 C149.91388672 434.05078125 90.84388672 434.05078125 29.98388672 434.05078125 C28.66388672 437.68078125 27.34388672 441.31078125 25.98388672 445.05078125 C23.23388672 448.61328125 23.23388672 448.61328125 20.98388672 451.05078125 C20.98388672 451.71078125 20.98388672 452.37078125 20.98388672 453.05078125 C20.17951172 453.42203125 20.17951172 453.42203125 19.35888672 453.80078125 C16.86259285 455.03840186 16.86259285 455.03840186 14.35888672 456.98828125 C5.45145923 462.43170916 -3.81153419 462.51310743 -14.00830078 462.484375 C-15.44499963 462.48894913 -16.8816963 462.49425831 -18.31838989 462.5002594 C-21.31554099 462.50914268 -24.31242496 462.50682316 -27.30957031 462.49682617 C-31.1176187 462.48535125 -34.92473764 462.5055488 -38.73266411 462.53474331 C-41.69615366 462.55324431 -44.65942622 462.55278538 -47.62295914 462.54710579 C-49.02534411 462.54695422 -50.42774537 462.55286003 -51.83007431 462.56539726 C-63.65887893 462.65626986 -74.17839426 461.42335717 -83.01611328 453.05078125 C-83.67611328 453.05078125 -84.33611328 453.05078125 -85.01611328 453.05078125 C-85.26361328 452.51453125 -85.51111328 451.97828125 -85.76611328 451.42578125 C-87.01170192 448.92499352 -87.01170192 448.92499352 -88.95361328 446.36328125 C-91.01611328 443.05078125 -91.01611328 443.05078125 -94.01611328 434.05078125 C-153.08611328 434.05078125 -212.15611328 434.05078125 -273.01611328 434.05078125 Z M-77.01611328 434.05078125 C-75.11951696 438.96795602 -75.11951696 438.96795602 -71.70361328 442.23828125 C-71.12998047 442.72683594 -70.55634766 443.21539062 -69.96533203 443.71875 C-65.72562236 446.61602655 -61.96692231 447.30496435 -56.8840332 447.34130859 C-55.66894577 447.3540683 -54.45385834 447.366828 -53.20195007 447.37997437 C-51.89667862 447.38220001 -50.59140717 447.38442566 -49.24658203 447.38671875 C-47.88283653 447.3931529 -46.5190924 447.39988171 -45.15534973 447.40689087 C-42.29990441 447.41884487 -39.44457989 447.42257373 -36.58911133 447.42138672 C-32.94758218 447.42118382 -29.306836 447.44846296 -25.66549206 447.48293114 C-22.84886691 447.5052785 -20.03242773 447.50922186 -17.21572304 447.50816727 C-15.22612848 447.51164525 -13.23659198 447.53326083 -11.24711609 447.55526733 C-3.02666275 447.51396005 2.72951963 446.81303871 9.07763672 441.19921875 C9.54169922 440.61398437 10.00576172 440.02875 10.48388672 439.42578125 C10.96857422 438.83539063 11.45326172 438.245 11.95263672 437.63671875 C13.16559789 436.08662124 13.16559789 436.08662124 12.98388672 434.05078125 C-16.71611328 434.05078125 -46.41611328 434.05078125 -77.01611328 434.05078125 Z " fill="#000000" transform="translate(288.01611328125,14.94921875)"/>
<path d="M0 0 C1.95792984 -0.01258347 1.95792984 -0.01258347 3.95541382 -0.02542114 C5.39491572 -0.01445525 6.83441461 -0.00308933 8.27391052 0.00863647 C9.79523546 0.00648976 11.31655879 0.00261081 12.83787537 -0.00286865 C16.96391125 -0.01255409 21.08951377 0.00273053 25.21549726 0.02303743 C29.53378629 0.04061654 33.85206211 0.0370832 38.17037964 0.03631592 C45.42094669 0.03818832 52.67134622 0.0555449 59.92185974 0.08285522 C68.30558885 0.11431723 76.68913459 0.12485097 85.07291847 0.12338412 C93.1380439 0.12216358 101.2031096 0.13237352 109.26821709 0.14896774 C112.70074365 0.15603005 116.13324907 0.15969375 119.56578255 0.16075516 C123.60660897 0.16276376 127.64728136 0.17497108 131.68805695 0.19508743 C133.17153671 0.20093028 134.65503419 0.20338961 136.13852501 0.20223236 C138.1621909 0.20125108 140.18584993 0.2137979 142.20947266 0.22705078 C143.34231469 0.23040247 144.47515673 0.23375416 145.64232731 0.23720741 C148.50723774 0.49145834 150.14528007 0.94752478 152.54124451 2.49447632 C154.62283471 5.17080658 154.53712041 6.61201299 154.41624451 10.05697632 C153.54124451 13.49447632 153.54124451 13.49447632 151.8874588 15.18509007 C148.81519154 16.89967536 146.64102637 16.87472384 143.1268158 16.88215637 C142.48510264 16.88754191 141.84338948 16.89292745 141.18223047 16.89847618 C139.03412805 16.91277234 136.88664042 16.90564843 134.73851013 16.89852905 C133.19762679 16.90423174 131.65674768 16.91119561 130.11587524 16.91932678 C125.93203185 16.93728341 121.74839789 16.9360853 117.56452751 16.9303844 C114.07280224 16.92729655 110.58111743 16.9333804 107.08939791 16.93942314 C98.85342329 16.95347461 90.61755238 16.95190157 82.38157654 16.94052124 C73.88134457 16.92903542 65.38142793 16.94312196 56.88123751 16.96991771 C49.58516607 16.99205755 42.28919375 16.9987161 34.99309111 16.9928413 C30.63453845 16.98946686 26.27618802 16.99191909 21.91766357 17.00909233 C17.82012287 17.02453248 13.72305034 17.02063895 9.62552834 17.00178719 C8.12107751 16.99809331 6.61659222 17.00123302 5.11217308 17.01167297 C3.05946327 17.02483124 1.0083153 17.01338459 -1.04432678 16.99568176 C-2.19321632 16.99547248 -3.34210587 16.9952632 -4.52581024 16.99504757 C-8.09119366 16.38653691 -9.26148522 15.30902086 -11.45875549 12.49447632 C-12.02516174 10.49447632 -12.02516174 10.49447632 -12.02125549 8.49447632 C-12.04316956 7.83447632 -12.06508362 7.17447632 -12.08766174 6.49447632 C-10.32093504 0.87606594 -5.21083799 -0.00500997 0 0 Z " fill="#000000" transform="translate(104.45875549316406,362.5055236816406)"/>
<path d="M0 0 C1.57131683 -0.01292336 1.57131683 -0.01292336 3.17437744 -0.02610779 C6.63993985 -0.04882624 10.10469755 -0.04201809 13.5703125 -0.03295898 C15.9764022 -0.03819172 18.38248983 -0.0444669 20.78857422 -0.05174255 C25.83245493 -0.06215751 30.87605371 -0.05756898 35.91992188 -0.04296875 C42.39017055 -0.02577471 48.85953176 -0.04927927 55.3296814 -0.08445835 C60.29848132 -0.10639586 65.26706768 -0.10499971 70.23590088 -0.09669304 C72.62177504 -0.09587162 75.00766459 -0.10277117 77.39349365 -0.11746407 C80.72642944 -0.13484287 84.05775467 -0.12042158 87.390625 -0.09765625 C88.37983948 -0.10934845 89.36905396 -0.12104065 90.38824463 -0.13308716 C97.05698673 -0.04019672 97.05698673 -0.04019672 100.30810547 2.88148499 C102.00391632 6.12341377 102.30946997 7.92527213 101.6953125 11.53344727 C99.46324819 14.38125345 98.14538251 15.38342393 94.6953125 16.53344727 C93.29783538 16.62572138 91.89639676 16.66400083 90.49588013 16.66716003 C89.21316727 16.67355751 89.21316727 16.67355751 87.90454102 16.68008423 C86.5018396 16.67940445 86.5018396 16.67940445 85.07080078 16.67871094 C84.08352997 16.68206955 83.09625916 16.68542816 82.07907104 16.68888855 C78.80790964 16.6984053 75.53679939 16.70034204 72.265625 16.70141602 C69.99502542 16.70462814 67.72442605 16.70799218 65.4538269 16.71150208 C60.69072998 16.71749519 55.92765121 16.71934179 51.16455078 16.71875 C45.05897876 16.71864838 38.95352304 16.73229975 32.84797859 16.74952221 C28.15712956 16.76063687 23.46630869 16.76266937 18.77544785 16.76214027 C16.5243782 16.76332123 14.27330784 16.76774944 12.02225113 16.77547264 C8.87428884 16.78526141 5.72657958 16.78239876 2.57861328 16.77636719 C1.18198456 16.78479645 1.18198456 16.78479645 -0.24285889 16.793396 C-8.50403132 16.75314026 -8.50403132 16.75314026 -12.3046875 14.53344727 C-14.78507657 10.81286366 -14.76805953 8.93548156 -14.3046875 4.53344727 C-10.88828128 -0.88892606 -5.76088714 -0.03800475 0 0 Z " fill="#000000" transform="translate(107.3046875,331.466552734375)"/>
</svg>
