<svg width="81" height="81" viewBox="0 0 81 81" fill="none" xmlns="http://www.w3.org/2000/svg">
<g clip-path="url(#clip0_1_40)">
<path d="M81 15.4946V69.822L40.5 81.0675L0 69.822V15.4946C0 12.8925 1.14412 10.4456 3.14212 8.78176C3.213 8.72101 3.30075 8.68388 3.375 8.62651V67.257L40.5 77.5609L77.625 67.257V8.62651C77.6992 8.68388 77.7836 8.72101 77.8579 8.78176C79.8559 10.449 81 12.8959 81 15.4946ZM40.5 70.9425L10.125 62.262V11.8159C10.125 9.14288 11.3501 6.68926 13.4831 5.07938C15.6195 3.46951 18.3161 2.97338 20.8811 3.70238L35.019 7.74226C37.3106 8.39701 39.2276 9.84826 40.5 11.7416C41.7724 9.84826 43.6894 8.39701 45.981 7.74226L60.1189 3.70238C62.6839 2.97001 65.3839 3.46951 67.5169 5.07938C69.6499 6.68926 70.875 9.14626 70.875 11.8159V62.262L40.5 70.9425ZM42.1875 66.9499L67.5 59.7173V11.8159C67.5 10.2128 66.7642 8.73788 65.4851 7.77263C64.5907 7.10101 63.531 6.75001 62.451 6.75001C61.9819 6.75001 61.5127 6.81751 61.047 6.94913L46.9057 10.989C44.1281 11.7821 42.1875 14.3573 42.1875 17.2463V66.9499ZM38.8125 17.2463C38.8125 14.3539 36.8719 11.7788 34.0943 10.989L19.9564 6.94913C18.414 6.50701 16.8008 6.80738 15.5183 7.77263C14.2391 8.73788 13.5034 10.2128 13.5034 11.8159V59.7173L38.8159 66.9499V17.2463H38.8125Z" fill="#9E9E9E"/>
</g>
<defs>
<clipPath id="clip0_1_40">
<rect width="81" height="81" fill="white"/>
</clipPath>
</defs>
</svg>
