<svg width="81" height="81" viewBox="0 0 81 81" fill="none" xmlns="http://www.w3.org/2000/svg">
<g clip-path="url(#clip0_1_38)">
<path d="M79.3192 67.5L78.0637 67.4933H78.0232C74.5199 67.4933 71.02 67.068 67.6214 66.2276L64.5839 65.4717C60.9187 64.5638 57.1454 64.1082 53.3688 64.1082H53.3249L37.5974 64.125H37.5873C34.0739 64.125 31.0162 61.7153 30.4762 58.5158C30.1623 56.6663 30.5875 54.8235 31.6743 53.3318C32.7644 51.84 34.3743 50.8714 35.9639 50.625H59.059C59.9905 50.625 60.7465 49.869 60.7465 48.9375C60.7465 48.006 59.9905 47.25 59.059 47.25L45.9404 47.2602L68.347 22.1299L78.6037 26.8448C78.8332 26.9494 79.0728 27 79.3057 27C79.9435 27 80.5578 26.6355 80.8413 26.0179C81.2328 25.1708 80.8615 24.1684 80.0144 23.7803L70.696 19.4974L71.4115 18.6942C73.1058 16.9999 74.0407 14.7488 74.0407 12.3492C74.0407 9.94953 73.1092 7.6984 71.4115 6.00415C68.023 2.61228 62.1877 2.53128 58.6473 6.08178L53.5645 11.8699L24.985 22.7273C21.5729 24.1077 18.5422 26.3453 16.2067 29.2073L2.47041 46.3455C-0.820215 49.6362 -0.820215 54.9889 2.47041 58.2728C3.07791 58.887 3.77991 59.4 4.54941 59.8017C4.79916 59.9299 5.06579 59.994 5.32904 59.994C5.93654 59.994 6.52378 59.6633 6.82753 59.0862C7.25616 58.2593 6.93891 57.24 6.11204 56.808C5.64629 56.565 5.22441 56.2579 4.85654 55.89C2.88216 53.9157 2.88216 50.706 4.98141 48.5967L18.8392 31.3302C20.8068 28.917 23.3718 27.0237 26.2237 25.866L48.8125 17.2834L10.8607 60.5104C8.31928 63.4028 6.91866 67.1187 6.91866 70.9729V75.9409C6.91866 76.8724 7.67466 77.6284 8.60616 77.6284H12.3389C17.0099 77.6284 21.421 75.5865 24.4383 72.0225L30.5167 64.8777C32.4134 66.5044 34.9042 67.5034 37.5873 67.5034H37.6042L53.3317 67.4865H53.3722C56.8754 67.4865 60.3787 67.9118 63.7773 68.7522L66.8148 69.5081C70.48 70.416 74.2533 70.8717 78.0198 70.8717H78.0637L79.309 70.8784H79.3158C80.2439 70.8784 80.9999 70.1292 81.0033 69.201C81.0067 68.2695 80.2574 67.5102 79.3225 67.5034L79.3192 67.5ZM21.8665 69.8322C19.4905 72.6402 16.021 74.25 12.3423 74.25H10.297V70.9695C10.297 67.9388 11.3973 65.0127 13.3987 62.7379L61.111 8.39028C63.2272 6.27078 66.9127 6.27415 69.0288 8.39028C70.0852 9.44665 70.669 10.854 70.669 12.3492C70.669 13.8443 70.0885 15.2483 68.9647 16.3755L41.4213 47.2635H35.731C32.9905 47.6584 30.5842 49.1063 28.954 51.3439C27.3239 53.5782 26.6827 56.3288 27.1518 59.0794C27.3442 60.2168 27.7559 61.2799 28.3195 62.2519L21.8665 69.8322Z" fill="#9E9E9E"/>
</g>
<defs>
<clipPath id="clip0_1_38">
<rect width="81" height="81" fill="white"/>
</clipPath>
</defs>
</svg>
