<svg width="118" height="167" viewBox="0 0 118 167" fill="none" xmlns="http://www.w3.org/2000/svg">
<g clip-path="url(#clip0_1_507)">
<path fill-rule="evenodd" clip-rule="evenodd" d="M88.2218 92.6045C91.6211 81.7942 92.9145 67.3336 91.4952 56.5111C90.9428 52.243 89.9061 47.1145 88.6488 42.3822C87.2912 37.2804 83.3539 26.5552 81.4599 22.8318C77.9247 15.8202 72.8309 9.01538 67.8179 4.56097C65.829 2.8134 63.0651 1.55255 61.3516 1.63894C59.5409 1.71111 59.6159 2.26079 61.5146 3.07076C63.8061 4.04834 65.5408 5.6057 68.8503 9.57862C72.4303 13.8849 74.2278 16.5045 76.6334 20.9637C81.618 30.2012 86.1001 45.2729 87.3944 57.2955C88.3226 65.7016 87.5158 75.5746 85.1221 85.4789C84.2167 89.234 80.9637 97.464 78.7538 101.616C76.154 106.501 71.8969 112.368 68.1352 116.349C64.332 120.366 58.8104 124.904 53.9422 128.031C50.8343 130.056 43.2477 134.476 43.0417 134.415C42.9762 134.387 43.171 132.782 43.4818 130.844C44.2208 126.39 44.3123 124.604 43.9725 123.042C43.587 121.406 43.1145 120.579 42.2012 119.998C41.5619 119.562 41.3261 119.571 40.513 119.904C38.9616 120.578 38.5978 121.431 35.9698 130.554C33.6983 138.358 33.4863 138.976 30.9396 144.946L28.2963 151.202L28.5536 152.292C28.8669 153.735 29.5316 154.535 30.7973 155.075C32.2595 155.699 33.6651 155.427 35.7592 154.086C36.7442 153.471 38.6131 152.415 39.9186 151.774C45.222 149.077 50.2834 146.223 52.0245 144.923C56.0925 141.918 57.4604 139.014 56.1654 136.063L55.718 135.056L58.6933 132.919C68.17 126.063 75.971 117.512 81.6641 107.735C83.2621 104.956 87.1724 95.9713 88.2218 92.6045Z" fill="#140342"/>
</g>
<defs>
<clipPath id="clip0_1_507">
<rect width="153.823" height="61.6995" fill="white" transform="translate(117.333 24.9554) rotate(113.103)"/>
</clipPath>
</defs>
</svg>
