<svg width="118" height="166" viewBox="0 0 118 166" fill="none" xmlns="http://www.w3.org/2000/svg">
<g clip-path="url(#clip0_1_509)">
<path fill-rule="evenodd" clip-rule="evenodd" d="M87.9981 91.8591C91.3974 81.0488 92.6909 66.5882 91.2716 55.7657C90.7192 51.4977 89.6825 46.3691 88.4251 41.6369C87.0676 36.5351 83.1303 25.8098 81.2363 22.0865C77.7011 15.0748 72.6073 8.27002 67.5943 3.81561C65.6054 2.06804 62.8414 0.807189 61.1279 0.893576C59.3172 0.965749 59.3923 1.51543 61.291 2.3254C63.5825 3.30297 65.3171 4.86034 68.6266 8.83326C72.2067 13.1396 74.0042 15.7591 76.4098 20.2183C81.3943 29.4558 85.8765 44.5275 87.1707 56.5501C88.099 64.9562 87.2922 74.8292 84.8985 84.7335C83.993 88.4887 80.7401 96.7186 78.5302 100.871C75.9304 105.756 71.6733 111.623 67.9115 115.604C64.1084 119.62 58.5868 124.159 53.7186 127.286C50.6107 129.311 43.0241 133.731 42.8181 133.67C42.7526 133.642 42.9474 132.036 43.2582 130.098C43.9972 125.645 44.0887 123.858 43.7489 122.297C43.3633 120.661 42.8909 119.833 41.9775 119.253C41.3383 118.817 41.1025 118.825 40.2894 119.159C38.738 119.833 38.3742 120.686 35.7461 129.809C33.4747 137.613 33.2627 138.231 30.7159 144.201L28.0727 150.457L28.33 151.547C28.6433 152.989 29.3079 153.79 30.5737 154.33C32.0359 154.953 33.4415 154.682 35.5355 153.341C36.5206 152.725 38.3894 151.67 39.695 151.028C44.9984 148.332 50.0597 145.478 51.8009 144.177C55.8689 141.172 57.2367 138.268 55.9418 135.318L55.4944 134.31L58.4697 132.173C67.9463 125.318 75.7474 116.767 81.4404 106.989C83.0384 104.211 86.9488 95.226 87.9981 91.8591Z" fill="#140342"/>
</g>
<defs>
<clipPath id="clip0_1_509">
<rect width="153.823" height="61.6995" fill="white" transform="translate(117.109 24.2101) rotate(113.103)"/>
</clipPath>
</defs>
</svg>
