<svg width="118" height="166" viewBox="0 0 118 166" fill="none" xmlns="http://www.w3.org/2000/svg">
<g clip-path="url(#clip0_1_511)">
<path fill-rule="evenodd" clip-rule="evenodd" d="M29.1112 91.8591C25.7119 81.0488 24.4185 66.5882 25.8378 55.7657C26.3902 51.4977 27.4269 46.3691 28.6842 41.6369C30.0418 36.5351 33.9791 25.8098 35.8731 22.0865C39.4083 15.0748 44.5021 8.27002 49.5151 3.81561C51.504 2.06804 54.2679 0.807189 55.9814 0.893576C57.7921 0.965749 57.7171 1.51543 55.8184 2.3254C53.5269 3.30297 51.7922 4.86034 48.4827 8.83326C44.9027 13.1396 43.1052 15.7591 40.6996 20.2183C35.715 29.4558 31.2329 44.5275 29.9386 56.5501C29.0104 64.9562 29.8172 74.8292 32.2109 84.7335C33.1163 88.4887 36.3693 96.7186 38.5792 100.871C41.179 105.756 45.4361 111.623 49.1978 115.604C53.001 119.62 58.5226 124.159 63.3908 127.286C66.4987 129.311 74.0853 133.731 74.2913 133.67C74.3568 133.642 74.162 132.036 73.8512 130.098C73.1122 125.645 73.0207 123.858 73.3605 122.297C73.746 120.661 74.2185 119.833 75.1318 119.253C75.7711 118.817 76.0069 118.825 76.82 119.159C78.3714 119.833 78.7352 120.686 81.3632 129.809C83.6347 137.613 83.8467 138.231 86.3935 144.201L89.0367 150.457L88.7794 151.547C88.4661 152.989 87.8014 153.79 86.5357 154.33C85.0735 154.953 83.6679 154.682 81.5739 153.341C80.5888 152.725 78.7199 151.67 77.4144 151.028C72.111 148.332 67.0496 145.478 65.3085 144.177C61.2405 141.172 59.8726 138.268 61.1676 135.318L61.615 134.31L58.6397 132.173C49.163 125.318 41.362 116.767 35.6689 106.989C34.0709 104.211 30.1606 95.226 29.1112 91.8591Z" fill="#140342"/>
</g>
<defs>
<clipPath id="clip0_1_511">
<rect width="153.823" height="61.6995" fill="white" transform="matrix(0.392388 0.9198 0.9198 -0.392388 0 24.2101)"/>
</clipPath>
</defs>
</svg>
